solid OpenSCAD_Model
  facet normal 0 0 -1
    outer loop
      vertex -53.5 6.55186e-15 -16
      vertex -53.1941 1.93136 -16
      vertex -53.1941 -1.93136 -16
    endloop
  endfacet
  facet normal 0 0 -1
    outer loop
      vertex -53.1941 -1.93136 -16
      vertex -53.1941 1.93136 -16
      vertex -52.3064 3.67366 -16
    endloop
  endfacet
  facet normal 0 0 -1
    outer loop
      vertex -53.1941 -1.93136 -16
      vertex -52.3064 3.67366 -16
      vertex -50.9237 5.05636 -16
    endloop
  endfacet
  facet normal 0 0 -1
    outer loop
      vertex -53.1941 -1.93136 -16
      vertex -50.9237 5.05636 -16
      vertex -49.1814 5.9441 -16
    endloop
  endfacet
  facet normal 0 0 -1
    outer loop
      vertex -53.1941 -1.93136 -16
      vertex -49.1814 5.9441 -16
      vertex -47.25 6.25 -16
    endloop
  endfacet
  facet normal 0 0 -1
    outer loop
      vertex -53.1941 -1.93136 -16
      vertex -47.25 6.25 -16
      vertex -42 6.25 -16
    endloop
  endfacet
  facet normal 0 0 -1
    outer loop
      vertex -42 6.25 -16
      vertex -42 42 -16
      vertex -6.25 42 -16
    endloop
  endfacet
  facet normal 0 0 -1
    outer loop
      vertex -6.25 42 -16
      vertex -6.25 47.25 -16
      vertex -5.9441 49.1814 -16
    endloop
  endfacet
  facet normal 0 0 -1
    outer loop
      vertex -6.25 42 -16
      vertex -5.9441 49.1814 -16
      vertex -5.05636 50.9237 -16
    endloop
  endfacet
  facet normal 0 0 -1
    outer loop
      vertex -6.25 42 -16
      vertex -5.05636 50.9237 -16
      vertex -3.67366 52.3064 -16
    endloop
  endfacet
  facet normal 0 0 -1
    outer loop
      vertex -6.25 42 -16
      vertex -3.67366 52.3064 -16
      vertex -1.93136 53.1941 -16
    endloop
  endfacet
  facet normal 0 0 -1
    outer loop
      vertex -6.25 42 -16
      vertex -1.93136 53.1941 -16
      vertex 3.27593e-15 53.5 -16
    endloop
  endfacet
  facet normal 0 0 -1
    outer loop
      vertex -6.25 42 -16
      vertex 3.27593e-15 53.5 -16
      vertex 1.93136 53.1941 -16
    endloop
  endfacet
  facet normal 0 0 -1
    outer loop
      vertex -1.42658 47.7135 -16
      vertex 1.93136 53.1941 -16
      vertex 3.67366 52.3064 -16
    endloop
  endfacet
  facet normal 0 0 -1
    outer loop
      vertex 1.42659 47.7135 -16
      vertex 5.05636 50.9237 -16
      vertex 0.881678 46.0365 -16
    endloop
  endfacet
  facet normal 0 0 -1
    outer loop
      vertex 0.881678 46.0365 -16
      vertex 5.05636 50.9237 -16
      vertex 5.9441 49.1814 -16
    endloop
  endfacet
  facet normal 0 0 -1
    outer loop
      vertex -42 6.25 -16
      vertex 5.9441 49.1814 -16
      vertex 6.25 47.25 -16
    endloop
  endfacet
  facet normal 0 0 -1
    outer loop
      vertex -42 6.25 -16
      vertex 6.25 47.25 -16
      vertex 6.25 42 -16
    endloop
  endfacet
  facet normal 0 0 -1
    outer loop
      vertex -42 6.25 -16
      vertex 6.25 42 -16
      vertex 42 42 -16
    endloop
  endfacet
  facet normal 0 0 -1
    outer loop
      vertex -46.0365 0.881678 -16
      vertex 42 42 -16
      vertex 42 6.25 -16
    endloop
  endfacet
  facet normal 0 0 -1
    outer loop
      vertex -53.1941 -1.93136 -16
      vertex 42 6.25 -16
      vertex 47.25 6.25 -16
    endloop
  endfacet
  facet normal 0 0 -1
    outer loop
      vertex -53.1941 -1.93136 -16
      vertex 47.25 6.25 -16
      vertex 49.1814 5.9441 -16
    endloop
  endfacet
  facet normal 0 0 -1
    outer loop
      vertex -53.1941 -1.93136 -16
      vertex 49.1814 5.9441 -16
      vertex 50.9237 5.05636 -16
    endloop
  endfacet
  facet normal 0 0 -1
    outer loop
      vertex -53.1941 -1.93136 -16
      vertex 50.9237 5.05636 -16
      vertex 52.3064 3.67366 -16
    endloop
  endfacet
  facet normal 0 0 -1
    outer loop
      vertex -53.1941 -1.93136 -16
      vertex 52.3064 3.67366 -16
      vertex 53.1941 1.93136 -16
    endloop
  endfacet
  facet normal 0 0 -1
    outer loop
      vertex 47.7135 1.42658 -16
      vertex 53.5 0 -16
      vertex 48.75 0 -16
    endloop
  endfacet
  facet normal 0 0 -1
    outer loop
      vertex -53.1941 -1.93136 -16
      vertex 53.1941 -1.93136 -16
      vertex 52.3064 -3.67366 -16
    endloop
  endfacet
  facet normal 0 0 -1
    outer loop
      vertex -53.1941 -1.93136 -16
      vertex 52.3064 -3.67366 -16
      vertex 50.9237 -5.05636 -16
    endloop
  endfacet
  facet normal 0 0 -1
    outer loop
      vertex -53.1941 -1.93136 -16
      vertex 50.9237 -5.05636 -16
      vertex 49.1814 -5.9441 -16
    endloop
  endfacet
  facet normal 0 0 -1
    outer loop
      vertex -53.1941 -1.93136 -16
      vertex 49.1814 -5.9441 -16
      vertex 47.25 -6.25 -16
    endloop
  endfacet
  facet normal 0 0 -1
    outer loop
      vertex -53.1941 -1.93136 -16
      vertex 47.25 -6.25 -16
      vertex 42 -6.25 -16
    endloop
  endfacet
  facet normal 0 0 -1
    outer loop
      vertex -42 -6.25 -16
      vertex 42 -6.25 -16
      vertex 42 -42 -16
    endloop
  endfacet
  facet normal 0 0 -1
    outer loop
      vertex -0.881678 -46.0365 -16
      vertex -42 -6.25 -16
      vertex 0.881678 -46.0365 -16
    endloop
  endfacet
  facet normal 0 0 -1
    outer loop
      vertex 1.42659 -47.7135 -16
      vertex 5.9441 -49.1814 -16
      vertex 5.05636 -50.9237 -16
    endloop
  endfacet
  facet normal 0 0 -1
    outer loop
      vertex -6.25 -47.25 -16
      vertex 1.93136 -53.1941 -16
      vertex 3.27593e-15 -53.5 -16
    endloop
  endfacet
  facet normal 0 0 -1
    outer loop
      vertex -6.25 -42 -16
      vertex -1.42658 -47.7135 -16
      vertex 1.93136 -53.1941 -16
    endloop
  endfacet
  facet normal 0 0 -1
    outer loop
      vertex -5.9441 -49.1814 -16
      vertex -1.93136 -53.1941 -16
      vertex -3.67366 -52.3064 -16
    endloop
  endfacet
  facet normal 0 0 -1
    outer loop
      vertex -0.881678 46.0365 -16
      vertex -6.25 42 -16
      vertex -1.42658 47.7135 -16
    endloop
  endfacet
  facet normal 0 0 -1
    outer loop
      vertex -6.25 -42 -16
      vertex 1.93136 -53.1941 -16
      vertex -6.25 -47.25 -16
    endloop
  endfacet
  facet normal 0 0 -1
    outer loop
      vertex -6.25 -47.25 -16
      vertex 3.27593e-15 -53.5 -16
      vertex -1.93136 -53.1941 -16
    endloop
  endfacet
  facet normal 0 0 -1
    outer loop
      vertex -1.42658 -47.7135 -16
      vertex 3.67366 -52.3064 -16
      vertex 1.93136 -53.1941 -16
    endloop
  endfacet
  facet normal 0 0 -1
    outer loop
      vertex 47.7135 1.42658 -16
      vertex 53.1941 1.93136 -16
      vertex 53.5 0 -16
    endloop
  endfacet
  facet normal 0 0 -1
    outer loop
      vertex 1.42659 -47.7135 -16
      vertex 3.67366 -52.3064 -16
      vertex 2.98508e-15 -48.75 -16
    endloop
  endfacet
  facet normal 0 0 -1
    outer loop
      vertex -42 -6.25 -16
      vertex 42 -42 -16
      vertex 6.25 -42 -16
    endloop
  endfacet
  facet normal 0 0 -1
    outer loop
      vertex -53.1941 -1.93136 -16
      vertex 42 -6.25 -16
      vertex -42 -6.25 -16
    endloop
  endfacet
  facet normal 0 0 -1
    outer loop
      vertex -48.75 5.97015e-15 -16
      vertex -53.1941 -1.93136 -16
      vertex -47.7135 1.42659 -16
    endloop
  endfacet
  facet normal 0 0 -1
    outer loop
      vertex 46.0365 -0.881678 -16
      vertex -53.1941 -1.93136 -16
      vertex 46.0365 0.881678 -16
    endloop
  endfacet
  facet normal 0 0 -1
    outer loop
      vertex 2.98508e-15 48.75 -16
      vertex 3.67366 52.3064 -16
      vertex 5.05636 50.9237 -16
    endloop
  endfacet
  facet normal 0 0 -1
    outer loop
      vertex -6.25 -47.25 -16
      vertex -1.93136 -53.1941 -16
      vertex -5.9441 -49.1814 -16
    endloop
  endfacet
  facet normal 0 0 -1
    outer loop
      vertex -42 -6.25 -16
      vertex 6.25 -42 -16
      vertex 6.25 -47.25 -16
    endloop
  endfacet
  facet normal 0 0 -1
    outer loop
      vertex -53.1941 -1.93136 -16
      vertex -50.9237 -5.05636 -16
      vertex -52.3064 -3.67366 -16
    endloop
  endfacet
  facet normal 0 0 -1
    outer loop
      vertex -46.0365 0.881678 -16
      vertex 42 6.25 -16
      vertex -46.0365 -0.881678 -16
    endloop
  endfacet
  facet normal 0 0 -1
    outer loop
      vertex -53.1941 -1.93136 -16
      vertex -48.75 5.97015e-15 -16
      vertex -47.7135 -1.42658 -16
    endloop
  endfacet
  facet normal 0 0 -1
    outer loop
      vertex -53.1941 -1.93136 -16
      vertex -47.7135 -1.42658 -16
      vertex 42 6.25 -16
    endloop
  endfacet
  facet normal 0 0 -1
    outer loop
      vertex -47.7135 -1.42658 -16
      vertex -46.0365 -0.881678 -16
      vertex 42 6.25 -16
    endloop
  endfacet
  facet normal 0 0 -1
    outer loop
      vertex -47.7135 1.42659 -16
      vertex 42 42 -16
      vertex -46.0365 0.881678 -16
    endloop
  endfacet
  facet normal 0 0 -1
    outer loop
      vertex -42 6.25 -16
      vertex 42 42 -16
      vertex -47.7135 1.42659 -16
    endloop
  endfacet
  facet normal 0 0 -1
    outer loop
      vertex -42 6.25 -16
      vertex -47.7135 1.42659 -16
      vertex -53.1941 -1.93136 -16
    endloop
  endfacet
  facet normal 0 0 -1
    outer loop
      vertex -50.9237 -5.05636 -16
      vertex -53.1941 -1.93136 -16
      vertex -49.1814 -5.9441 -16
    endloop
  endfacet
  facet normal 0 0 -1
    outer loop
      vertex 1.42659 -47.7135 -16
      vertex 5.05636 -50.9237 -16
      vertex 3.67366 -52.3064 -16
    endloop
  endfacet
  facet normal 0 0 -1
    outer loop
      vertex -1.42658 -47.7135 -16
      vertex 2.98508e-15 -48.75 -16
      vertex 3.67366 -52.3064 -16
    endloop
  endfacet
  facet normal 0 0 -1
    outer loop
      vertex 0.881678 -46.0365 -16
      vertex 5.9441 -49.1814 -16
      vertex 1.42659 -47.7135 -16
    endloop
  endfacet
  facet normal 0 0 -1
    outer loop
      vertex -6.25 42 -16
      vertex 1.93136 53.1941 -16
      vertex -1.42658 47.7135 -16
    endloop
  endfacet
  facet normal 0 0 -1
    outer loop
      vertex 2.98508e-15 48.75 -16
      vertex -1.42658 47.7135 -16
      vertex 3.67366 52.3064 -16
    endloop
  endfacet
  facet normal 0 0 -1
    outer loop
      vertex 0.881678 46.0365 -16
      vertex -42 6.25 -16
      vertex -0.881678 46.0365 -16
    endloop
  endfacet
  facet normal 0 0 -1
    outer loop
      vertex -6.25 42 -16
      vertex -0.881678 46.0365 -16
      vertex -42 6.25 -16
    endloop
  endfacet
  facet normal 0 0 -1
    outer loop
      vertex 2.98508e-15 48.75 -16
      vertex 5.05636 50.9237 -16
      vertex 1.42659 47.7135 -16
    endloop
  endfacet
  facet normal 0 0 -1
    outer loop
      vertex -42 6.25 -16
      vertex 0.881678 46.0365 -16
      vertex 5.9441 49.1814 -16
    endloop
  endfacet
  facet normal 0 0 -1
    outer loop
      vertex 48.75 0 -16
      vertex 53.5 0 -16
      vertex 53.1941 -1.93136 -16
    endloop
  endfacet
  facet normal 0 0 -1
    outer loop
      vertex -53.1941 -1.93136 -16
      vertex 46.0365 -0.881678 -16
      vertex 47.7135 -1.42658 -16
    endloop
  endfacet
  facet normal 0 0 -1
    outer loop
      vertex -53.1941 -1.93136 -16
      vertex 47.7135 -1.42658 -16
      vertex 53.1941 -1.93136 -16
    endloop
  endfacet
  facet normal 0 0 -1
    outer loop
      vertex 48.75 0 -16
      vertex 53.1941 -1.93136 -16
      vertex 47.7135 -1.42658 -16
    endloop
  endfacet
  facet normal 0 0 -1
    outer loop
      vertex -53.1941 -1.93136 -16
      vertex 53.1941 1.93136 -16
      vertex 47.7135 1.42658 -16
    endloop
  endfacet
  facet normal 0 0 -1
    outer loop
      vertex -53.1941 -1.93136 -16
      vertex 47.7135 1.42658 -16
      vertex 46.0365 0.881678 -16
    endloop
  endfacet
  facet normal 0 0 -1
    outer loop
      vertex -5.9441 -49.1814 -16
      vertex -3.67366 -52.3064 -16
      vertex -5.05636 -50.9237 -16
    endloop
  endfacet
  facet normal 0 0 -1
    outer loop
      vertex -42 -6.25 -16
      vertex 6.25 -47.25 -16
      vertex 5.9441 -49.1814 -16
    endloop
  endfacet
  facet normal 0 0 -1
    outer loop
      vertex -42 -6.25 -16
      vertex 5.9441 -49.1814 -16
      vertex 0.881678 -46.0365 -16
    endloop
  endfacet
  facet normal 0 0 -1
    outer loop
      vertex -1.42658 -47.7135 -16
      vertex -6.25 -42 -16
      vertex -0.881678 -46.0365 -16
    endloop
  endfacet
  facet normal 0 0 -1
    outer loop
      vertex -42 -6.25 -16
      vertex -0.881678 -46.0365 -16
      vertex -6.25 -42 -16
    endloop
  endfacet
  facet normal 0 0 -1
    outer loop
      vertex -42 -6.25 -16
      vertex -6.25 -42 -16
      vertex -42 -42 -16
    endloop
  endfacet
  facet normal 0 0 -1
    outer loop
      vertex -49.1814 -5.9441 -16
      vertex -53.1941 -1.93136 -16
      vertex -47.25 -6.25 -16
    endloop
  endfacet
  facet normal 0 0 -1
    outer loop
      vertex -47.25 -6.25 -16
      vertex -53.1941 -1.93136 -16
      vertex -42 -6.25 -16
    endloop
  endfacet
  facet normal -0.987688 0.156435 0
    outer loop
      vertex -53.5 6.55186e-15 -16
      vertex -53.5 6.55186e-15 -14
      vertex -53.1941 1.93136 -16
    endloop
  endfacet
  facet normal -0.987688 0.156435 0
    outer loop
      vertex -53.1941 1.93136 -16
      vertex -53.5 6.55186e-15 -14
      vertex -53.1941 1.93136 -14
    endloop
  endfacet
  facet normal -0.987688 -0.156435 0
    outer loop
      vertex -53.5 6.55186e-15 -16
      vertex -53.1941 -1.93136 -16
      vertex -53.5 6.55186e-15 -14
    endloop
  endfacet
  facet normal -0.987688 -0.156435 0
    outer loop
      vertex -53.5 6.55186e-15 -14
      vertex -53.1941 -1.93136 -16
      vertex -53.1941 -1.93136 -14
    endloop
  endfacet
  facet normal -0.891007 -0.45399 0
    outer loop
      vertex -53.1941 -1.93136 -16
      vertex -52.3064 -3.67366 -16
      vertex -53.1941 -1.93136 -14
    endloop
  endfacet
  facet normal -0.891007 -0.45399 0
    outer loop
      vertex -53.1941 -1.93136 -14
      vertex -52.3064 -3.67366 -16
      vertex -52.3064 -3.67366 -14
    endloop
  endfacet
  facet normal -0.707107 -0.707107 0
    outer loop
      vertex -52.3064 -3.67366 -16
      vertex -50.9237 -5.05636 -16
      vertex -52.3064 -3.67366 -14
    endloop
  endfacet
  facet normal -0.707107 -0.707107 0
    outer loop
      vertex -52.3064 -3.67366 -14
      vertex -50.9237 -5.05636 -16
      vertex -50.9237 -5.05636 -14
    endloop
  endfacet
  facet normal -0.45399 -0.891007 0
    outer loop
      vertex -50.9237 -5.05636 -14
      vertex -50.9237 -5.05636 -16
      vertex -49.1814 -5.9441 -16
    endloop
  endfacet
  facet normal -0.45399 -0.891007 0
    outer loop
      vertex -49.1814 -5.9441 -14
      vertex -50.9237 -5.05636 -14
      vertex -49.1814 -5.9441 -16
    endloop
  endfacet
  facet normal -0.156435 -0.987688 0
    outer loop
      vertex -49.1814 -5.9441 -14
      vertex -49.1814 -5.9441 -16
      vertex -47.25 -6.25 -16
    endloop
  endfacet
  facet normal -0.156435 -0.987688 0
    outer loop
      vertex -47.25 -6.25 -14
      vertex -49.1814 -5.9441 -14
      vertex -47.25 -6.25 -16
    endloop
  endfacet
  facet normal -1.22465e-16 -1 0
    outer loop
      vertex -47.25 -6.25 -14
      vertex -47.25 -6.25 -16
      vertex -42 -6.25 -16
    endloop
  endfacet
  facet normal -1.22465e-16 -1 0
    outer loop
      vertex -42 -6.25 -14
      vertex -47.25 -6.25 -14
      vertex -42 -6.25 -16
    endloop
  endfacet
  facet normal -1 0 0
    outer loop
      vertex -42 -42 -16
      vertex -42 -42 16
      vertex -42 -6.25 -16
    endloop
  endfacet
  facet normal -1 0 0
    outer loop
      vertex -42 -6.25 -14
      vertex -42 -42 16
      vertex -42 42 16
    endloop
  endfacet
  facet normal -1 0 0
    outer loop
      vertex -42 6.25 -16
      vertex -42 42 16
      vertex -42 42 -16
    endloop
  endfacet
  facet normal -1 0 0
    outer loop
      vertex -42 6.25 -14
      vertex -42 42 16
      vertex -42 6.25 -16
    endloop
  endfacet
  facet normal -1 0 0
    outer loop
      vertex -42 -6.25 -16
      vertex -42 -42 16
      vertex -42 -6.25 -14
    endloop
  endfacet
  facet normal -1 0 0
    outer loop
      vertex -42 -6.25 -14
      vertex -42 42 16
      vertex -42 6.25 -14
    endloop
  endfacet
  facet normal 0 -1 0
    outer loop
      vertex -42 -42 16
      vertex -42 -42 -16
      vertex -6.25 -42 -16
    endloop
  endfacet
  facet normal 0 -1 0
    outer loop
      vertex 6.25 -42 -14
      vertex -42 -42 16
      vertex -6.25 -42 -14
    endloop
  endfacet
  facet normal 0 -1 0
    outer loop
      vertex -6.25 -42 -14
      vertex -42 -42 16
      vertex -6.25 -42 -16
    endloop
  endfacet
  facet normal 0 -1 0
    outer loop
      vertex 42 -42 -16
      vertex -42 -42 16
      vertex 6.25 -42 -14
    endloop
  endfacet
  facet normal 0 -1 0
    outer loop
      vertex 42 -42 -16
      vertex 6.25 -42 -14
      vertex 6.25 -42 -16
    endloop
  endfacet
  facet normal 0 -1 0
    outer loop
      vertex 42 -42 16
      vertex -42 -42 16
      vertex 42 -42 -16
    endloop
  endfacet
  facet normal -1 -6.12323e-17 0
    outer loop
      vertex -6.25 -42 -16
      vertex -6.25 -47.25 -16
      vertex -6.25 -42 -14
    endloop
  endfacet
  facet normal -1 -6.12323e-17 0
    outer loop
      vertex -6.25 -42 -14
      vertex -6.25 -47.25 -16
      vertex -6.25 -47.25 -14
    endloop
  endfacet
  facet normal -0.987688 -0.156435 0
    outer loop
      vertex -6.25 -47.25 -16
      vertex -5.9441 -49.1814 -16
      vertex -6.25 -47.25 -14
    endloop
  endfacet
  facet normal -0.987688 -0.156435 0
    outer loop
      vertex -6.25 -47.25 -14
      vertex -5.9441 -49.1814 -16
      vertex -5.9441 -49.1814 -14
    endloop
  endfacet
  facet normal -0.891007 -0.45399 0
    outer loop
      vertex -5.9441 -49.1814 -16
      vertex -5.05636 -50.9237 -16
      vertex -5.9441 -49.1814 -14
    endloop
  endfacet
  facet normal -0.891007 -0.45399 0
    outer loop
      vertex -5.9441 -49.1814 -14
      vertex -5.05636 -50.9237 -16
      vertex -5.05636 -50.9237 -14
    endloop
  endfacet
  facet normal -0.707107 -0.707107 0
    outer loop
      vertex -5.05636 -50.9237 -14
      vertex -5.05636 -50.9237 -16
      vertex -3.67366 -52.3064 -16
    endloop
  endfacet
  facet normal -0.707107 -0.707107 0
    outer loop
      vertex -3.67366 -52.3064 -14
      vertex -5.05636 -50.9237 -14
      vertex -3.67366 -52.3064 -16
    endloop
  endfacet
  facet normal -0.45399 -0.891007 0
    outer loop
      vertex -3.67366 -52.3064 -14
      vertex -3.67366 -52.3064 -16
      vertex -1.93136 -53.1941 -16
    endloop
  endfacet
  facet normal -0.45399 -0.891007 0
    outer loop
      vertex -1.93136 -53.1941 -14
      vertex -3.67366 -52.3064 -14
      vertex -1.93136 -53.1941 -16
    endloop
  endfacet
  facet normal -0.156435 -0.987688 0
    outer loop
      vertex -1.93136 -53.1941 -14
      vertex -1.93136 -53.1941 -16
      vertex 3.27593e-15 -53.5 -16
    endloop
  endfacet
  facet normal -0.156435 -0.987688 0
    outer loop
      vertex 3.27593e-15 -53.5 -14
      vertex -1.93136 -53.1941 -14
      vertex 3.27593e-15 -53.5 -16
    endloop
  endfacet
  facet normal 0.156435 -0.987688 0
    outer loop
      vertex 3.27593e-15 -53.5 -14
      vertex 3.27593e-15 -53.5 -16
      vertex 1.93136 -53.1941 -16
    endloop
  endfacet
  facet normal 0.156435 -0.987688 0
    outer loop
      vertex 1.93136 -53.1941 -14
      vertex 3.27593e-15 -53.5 -14
      vertex 1.93136 -53.1941 -16
    endloop
  endfacet
  facet normal 0.45399 -0.891007 0
    outer loop
      vertex 1.93136 -53.1941 -14
      vertex 1.93136 -53.1941 -16
      vertex 3.67366 -52.3064 -16
    endloop
  endfacet
  facet normal 0.45399 -0.891007 0
    outer loop
      vertex 3.67366 -52.3064 -14
      vertex 1.93136 -53.1941 -14
      vertex 3.67366 -52.3064 -16
    endloop
  endfacet
  facet normal 0.707107 -0.707107 0
    outer loop
      vertex 3.67366 -52.3064 -14
      vertex 3.67366 -52.3064 -16
      vertex 5.05636 -50.9237 -16
    endloop
  endfacet
  facet normal 0.707107 -0.707107 0
    outer loop
      vertex 5.05636 -50.9237 -14
      vertex 3.67366 -52.3064 -14
      vertex 5.05636 -50.9237 -16
    endloop
  endfacet
  facet normal 0.891007 -0.45399 0
    outer loop
      vertex 5.05636 -50.9237 -14
      vertex 5.05636 -50.9237 -16
      vertex 5.9441 -49.1814 -16
    endloop
  endfacet
  facet normal 0.891007 -0.45399 0
    outer loop
      vertex 5.9441 -49.1814 -14
      vertex 5.05636 -50.9237 -14
      vertex 5.9441 -49.1814 -16
    endloop
  endfacet
  facet normal 0.987688 -0.156435 0
    outer loop
      vertex 5.9441 -49.1814 -14
      vertex 5.9441 -49.1814 -16
      vertex 6.25 -47.25 -16
    endloop
  endfacet
  facet normal 0.987688 -0.156435 0
    outer loop
      vertex 6.25 -47.25 -14
      vertex 5.9441 -49.1814 -14
      vertex 6.25 -47.25 -16
    endloop
  endfacet
  facet normal 1 6.12323e-17 0
    outer loop
      vertex 6.25 -47.25 -16
      vertex 6.25 -42 -16
      vertex 6.25 -42 -14
    endloop
  endfacet
  facet normal 1 6.12323e-17 0
    outer loop
      vertex 6.25 -47.25 -14
      vertex 6.25 -47.25 -16
      vertex 6.25 -42 -14
    endloop
  endfacet
  facet normal 1 0 0
    outer loop
      vertex 42 -42 16
      vertex 42 -42 -16
      vertex 42 -6.25 -16
    endloop
  endfacet
  facet normal 1 0 0
    outer loop
      vertex 42 6.25 -14
      vertex 42 -42 16
      vertex 42 -6.25 -14
    endloop
  endfacet
  facet normal 1 0 0
    outer loop
      vertex 42 -6.25 -14
      vertex 42 -42 16
      vertex 42 -6.25 -16
    endloop
  endfacet
  facet normal 1 0 0
    outer loop
      vertex 42 42 -16
      vertex 42 -42 16
      vertex 42 6.25 -14
    endloop
  endfacet
  facet normal 1 0 0
    outer loop
      vertex 42 42 -16
      vertex 42 6.25 -14
      vertex 42 6.25 -16
    endloop
  endfacet
  facet normal 1 0 0
    outer loop
      vertex 42 42 16
      vertex 42 -42 16
      vertex 42 42 -16
    endloop
  endfacet
  facet normal 0 -1 0
    outer loop
      vertex 42 -6.25 -14
      vertex 42 -6.25 -16
      vertex 47.25 -6.25 -16
    endloop
  endfacet
  facet normal 0 -1 0
    outer loop
      vertex 47.25 -6.25 -14
      vertex 42 -6.25 -14
      vertex 47.25 -6.25 -16
    endloop
  endfacet
  facet normal 0.156435 -0.987688 0
    outer loop
      vertex 47.25 -6.25 -14
      vertex 47.25 -6.25 -16
      vertex 49.1814 -5.9441 -16
    endloop
  endfacet
  facet normal 0.156435 -0.987688 0
    outer loop
      vertex 49.1814 -5.9441 -14
      vertex 47.25 -6.25 -14
      vertex 49.1814 -5.9441 -16
    endloop
  endfacet
  facet normal 0.45399 -0.891007 0
    outer loop
      vertex 49.1814 -5.9441 -14
      vertex 49.1814 -5.9441 -16
      vertex 50.9237 -5.05636 -16
    endloop
  endfacet
  facet normal 0.45399 -0.891007 0
    outer loop
      vertex 50.9237 -5.05636 -14
      vertex 49.1814 -5.9441 -14
      vertex 50.9237 -5.05636 -16
    endloop
  endfacet
  facet normal 0.707107 -0.707107 0
    outer loop
      vertex 50.9237 -5.05636 -14
      vertex 50.9237 -5.05636 -16
      vertex 52.3064 -3.67366 -16
    endloop
  endfacet
  facet normal 0.707107 -0.707107 0
    outer loop
      vertex 52.3064 -3.67366 -14
      vertex 50.9237 -5.05636 -14
      vertex 52.3064 -3.67366 -16
    endloop
  endfacet
  facet normal 0.891007 -0.45399 0
    outer loop
      vertex 52.3064 -3.67366 -14
      vertex 52.3064 -3.67366 -16
      vertex 53.1941 -1.93136 -16
    endloop
  endfacet
  facet normal 0.891007 -0.45399 0
    outer loop
      vertex 53.1941 -1.93136 -14
      vertex 52.3064 -3.67366 -14
      vertex 53.1941 -1.93136 -16
    endloop
  endfacet
  facet normal 0.987688 -0.156435 0
    outer loop
      vertex 53.1941 -1.93136 -14
      vertex 53.1941 -1.93136 -16
      vertex 53.5 0 -16
    endloop
  endfacet
  facet normal 0.987688 -0.156435 0
    outer loop
      vertex 53.5 0 -14
      vertex 53.1941 -1.93136 -14
      vertex 53.5 0 -16
    endloop
  endfacet
  facet normal 0.987688 0.156435 0
    outer loop
      vertex 53.5 0 -16
      vertex 53.1941 1.93136 -16
      vertex 53.1941 1.93136 -14
    endloop
  endfacet
  facet normal 0.987688 0.156435 0
    outer loop
      vertex 53.5 0 -14
      vertex 53.5 0 -16
      vertex 53.1941 1.93136 -14
    endloop
  endfacet
  facet normal 0.891007 0.45399 0
    outer loop
      vertex 53.1941 1.93136 -16
      vertex 52.3064 3.67366 -16
      vertex 52.3064 3.67366 -14
    endloop
  endfacet
  facet normal 0.891007 0.45399 0
    outer loop
      vertex 53.1941 1.93136 -14
      vertex 53.1941 1.93136 -16
      vertex 52.3064 3.67366 -14
    endloop
  endfacet
  facet normal 0.707107 0.707107 0
    outer loop
      vertex 50.9237 5.05636 -16
      vertex 50.9237 5.05636 -14
      vertex 52.3064 3.67366 -16
    endloop
  endfacet
  facet normal 0.707107 0.707107 0
    outer loop
      vertex 52.3064 3.67366 -16
      vertex 50.9237 5.05636 -14
      vertex 52.3064 3.67366 -14
    endloop
  endfacet
  facet normal 0.45399 0.891007 0
    outer loop
      vertex 49.1814 5.9441 -16
      vertex 49.1814 5.9441 -14
      vertex 50.9237 5.05636 -16
    endloop
  endfacet
  facet normal 0.45399 0.891007 0
    outer loop
      vertex 50.9237 5.05636 -16
      vertex 49.1814 5.9441 -14
      vertex 50.9237 5.05636 -14
    endloop
  endfacet
  facet normal 0.156435 0.987688 0
    outer loop
      vertex 47.25 6.25 -16
      vertex 47.25 6.25 -14
      vertex 49.1814 5.9441 -16
    endloop
  endfacet
  facet normal 0.156435 0.987688 0
    outer loop
      vertex 49.1814 5.9441 -16
      vertex 47.25 6.25 -14
      vertex 49.1814 5.9441 -14
    endloop
  endfacet
  facet normal 0 1 0
    outer loop
      vertex 42 6.25 -16
      vertex 42 6.25 -14
      vertex 47.25 6.25 -16
    endloop
  endfacet
  facet normal 0 1 0
    outer loop
      vertex 47.25 6.25 -16
      vertex 42 6.25 -14
      vertex 47.25 6.25 -14
    endloop
  endfacet
  facet normal 0 1 0
    outer loop
      vertex -42 42 -16
      vertex -42 42 16
      vertex -6.25 42 -16
    endloop
  endfacet
  facet normal 0 1 0
    outer loop
      vertex -6.25 42 -14
      vertex -42 42 16
      vertex 42 42 16
    endloop
  endfacet
  facet normal 0 1 0
    outer loop
      vertex 6.25 42 -16
      vertex 42 42 16
      vertex 42 42 -16
    endloop
  endfacet
  facet normal 0 1 0
    outer loop
      vertex 6.25 42 -14
      vertex 42 42 16
      vertex 6.25 42 -16
    endloop
  endfacet
  facet normal 0 1 0
    outer loop
      vertex -6.25 42 -16
      vertex -42 42 16
      vertex -6.25 42 -14
    endloop
  endfacet
  facet normal 0 1 0
    outer loop
      vertex -6.25 42 -14
      vertex 42 42 16
      vertex 6.25 42 -14
    endloop
  endfacet
  facet normal 1 -6.12323e-17 0
    outer loop
      vertex 6.25 42 -14
      vertex 6.25 42 -16
      vertex 6.25 47.25 -16
    endloop
  endfacet
  facet normal 1 -6.12323e-17 0
    outer loop
      vertex 6.25 47.25 -14
      vertex 6.25 42 -14
      vertex 6.25 47.25 -16
    endloop
  endfacet
  facet normal 0.987688 0.156435 0
    outer loop
      vertex 6.25 47.25 -16
      vertex 5.9441 49.1814 -16
      vertex 5.9441 49.1814 -14
    endloop
  endfacet
  facet normal 0.987688 0.156435 0
    outer loop
      vertex 6.25 47.25 -14
      vertex 6.25 47.25 -16
      vertex 5.9441 49.1814 -14
    endloop
  endfacet
  facet normal 0.891007 0.45399 0
    outer loop
      vertex 5.9441 49.1814 -16
      vertex 5.05636 50.9237 -16
      vertex 5.05636 50.9237 -14
    endloop
  endfacet
  facet normal 0.891007 0.45399 0
    outer loop
      vertex 5.9441 49.1814 -14
      vertex 5.9441 49.1814 -16
      vertex 5.05636 50.9237 -14
    endloop
  endfacet
  facet normal 0.707107 0.707107 0
    outer loop
      vertex 5.05636 50.9237 -16
      vertex 3.67366 52.3064 -16
      vertex 3.67366 52.3064 -14
    endloop
  endfacet
  facet normal 0.707107 0.707107 0
    outer loop
      vertex 5.05636 50.9237 -14
      vertex 5.05636 50.9237 -16
      vertex 3.67366 52.3064 -14
    endloop
  endfacet
  facet normal 0.45399 0.891007 0
    outer loop
      vertex 1.93136 53.1941 -16
      vertex 1.93136 53.1941 -14
      vertex 3.67366 52.3064 -16
    endloop
  endfacet
  facet normal 0.45399 0.891007 0
    outer loop
      vertex 3.67366 52.3064 -16
      vertex 1.93136 53.1941 -14
      vertex 3.67366 52.3064 -14
    endloop
  endfacet
  facet normal 0.156435 0.987688 0
    outer loop
      vertex 3.27593e-15 53.5 -16
      vertex 3.27593e-15 53.5 -14
      vertex 1.93136 53.1941 -16
    endloop
  endfacet
  facet normal 0.156435 0.987688 0
    outer loop
      vertex 1.93136 53.1941 -16
      vertex 3.27593e-15 53.5 -14
      vertex 1.93136 53.1941 -14
    endloop
  endfacet
  facet normal -0.156435 0.987688 0
    outer loop
      vertex -1.93136 53.1941 -16
      vertex -1.93136 53.1941 -14
      vertex 3.27593e-15 53.5 -16
    endloop
  endfacet
  facet normal -0.156435 0.987688 0
    outer loop
      vertex 3.27593e-15 53.5 -16
      vertex -1.93136 53.1941 -14
      vertex 3.27593e-15 53.5 -14
    endloop
  endfacet
  facet normal -0.45399 0.891007 0
    outer loop
      vertex -3.67366 52.3064 -16
      vertex -3.67366 52.3064 -14
      vertex -1.93136 53.1941 -16
    endloop
  endfacet
  facet normal -0.45399 0.891007 0
    outer loop
      vertex -1.93136 53.1941 -16
      vertex -3.67366 52.3064 -14
      vertex -1.93136 53.1941 -14
    endloop
  endfacet
  facet normal -0.707107 0.707107 0
    outer loop
      vertex -5.05636 50.9237 -16
      vertex -5.05636 50.9237 -14
      vertex -3.67366 52.3064 -16
    endloop
  endfacet
  facet normal -0.707107 0.707107 0
    outer loop
      vertex -3.67366 52.3064 -16
      vertex -5.05636 50.9237 -14
      vertex -3.67366 52.3064 -14
    endloop
  endfacet
  facet normal -0.891007 0.45399 0
    outer loop
      vertex -5.9441 49.1814 -16
      vertex -5.9441 49.1814 -14
      vertex -5.05636 50.9237 -16
    endloop
  endfacet
  facet normal -0.891007 0.45399 0
    outer loop
      vertex -5.05636 50.9237 -16
      vertex -5.9441 49.1814 -14
      vertex -5.05636 50.9237 -14
    endloop
  endfacet
  facet normal -0.987688 0.156435 0
    outer loop
      vertex -6.25 47.25 -16
      vertex -6.25 47.25 -14
      vertex -5.9441 49.1814 -16
    endloop
  endfacet
  facet normal -0.987688 0.156435 0
    outer loop
      vertex -5.9441 49.1814 -16
      vertex -6.25 47.25 -14
      vertex -5.9441 49.1814 -14
    endloop
  endfacet
  facet normal -1 6.12323e-17 0
    outer loop
      vertex -6.25 42 -16
      vertex -6.25 42 -14
      vertex -6.25 47.25 -16
    endloop
  endfacet
  facet normal -1 6.12323e-17 0
    outer loop
      vertex -6.25 47.25 -16
      vertex -6.25 42 -14
      vertex -6.25 47.25 -14
    endloop
  endfacet
  facet normal 1.22465e-16 1 0
    outer loop
      vertex -47.25 6.25 -16
      vertex -47.25 6.25 -14
      vertex -42 6.25 -16
    endloop
  endfacet
  facet normal 1.22465e-16 1 0
    outer loop
      vertex -42 6.25 -16
      vertex -47.25 6.25 -14
      vertex -42 6.25 -14
    endloop
  endfacet
  facet normal -0.156435 0.987688 0
    outer loop
      vertex -49.1814 5.9441 -16
      vertex -49.1814 5.9441 -14
      vertex -47.25 6.25 -16
    endloop
  endfacet
  facet normal -0.156435 0.987688 0
    outer loop
      vertex -47.25 6.25 -16
      vertex -49.1814 5.9441 -14
      vertex -47.25 6.25 -14
    endloop
  endfacet
  facet normal -0.45399 0.891007 0
    outer loop
      vertex -50.9237 5.05636 -16
      vertex -50.9237 5.05636 -14
      vertex -49.1814 5.9441 -16
    endloop
  endfacet
  facet normal -0.45399 0.891007 0
    outer loop
      vertex -49.1814 5.9441 -16
      vertex -50.9237 5.05636 -14
      vertex -49.1814 5.9441 -14
    endloop
  endfacet
  facet normal -0.707107 0.707107 0
    outer loop
      vertex -52.3064 3.67366 -16
      vertex -52.3064 3.67366 -14
      vertex -50.9237 5.05636 -16
    endloop
  endfacet
  facet normal -0.707107 0.707107 0
    outer loop
      vertex -50.9237 5.05636 -16
      vertex -52.3064 3.67366 -14
      vertex -50.9237 5.05636 -14
    endloop
  endfacet
  facet normal -0.891007 0.45399 0
    outer loop
      vertex -53.1941 1.93136 -16
      vertex -53.1941 1.93136 -14
      vertex -52.3064 3.67366 -16
    endloop
  endfacet
  facet normal -0.891007 0.45399 0
    outer loop
      vertex -52.3064 3.67366 -16
      vertex -53.1941 1.93136 -14
      vertex -52.3064 3.67366 -14
    endloop
  endfacet
  facet normal 0.809017 0.587785 0
    outer loop
      vertex -48.75 5.97015e-15 -14
      vertex -47.7135 -1.42658 -14
      vertex -47.7135 -1.42658 -16
    endloop
  endfacet
  facet normal 0.809017 0.587785 0
    outer loop
      vertex -48.75 5.97015e-15 -16
      vertex -48.75 5.97015e-15 -14
      vertex -47.7135 -1.42658 -16
    endloop
  endfacet
  facet normal 0.809017 -0.587785 0
    outer loop
      vertex -47.7135 1.42659 -16
      vertex -47.7135 1.42659 -14
      vertex -48.75 5.97015e-15 -14
    endloop
  endfacet
  facet normal 0.809017 -0.587785 0
    outer loop
      vertex -48.75 5.97015e-15 -16
      vertex -47.7135 1.42659 -16
      vertex -48.75 5.97015e-15 -14
    endloop
  endfacet
  facet normal -0.309017 -0.951056 0
    outer loop
      vertex -46.0365 0.881678 -16
      vertex -46.0365 0.881678 -14
      vertex -47.7135 1.42659 -14
    endloop
  endfacet
  facet normal -0.309017 -0.951056 0
    outer loop
      vertex -47.7135 1.42659 -16
      vertex -46.0365 0.881678 -16
      vertex -47.7135 1.42659 -14
    endloop
  endfacet
  facet normal -1 1.22465e-16 0
    outer loop
      vertex -46.0365 0.881678 -14
      vertex -46.0365 0.881678 -16
      vertex -46.0365 -0.881678 -14
    endloop
  endfacet
  facet normal -1 1.22465e-16 0
    outer loop
      vertex -46.0365 -0.881678 -14
      vertex -46.0365 0.881678 -16
      vertex -46.0365 -0.881678 -16
    endloop
  endfacet
  facet normal -0.309017 0.951056 0
    outer loop
      vertex -46.0365 -0.881678 -14
      vertex -46.0365 -0.881678 -16
      vertex -47.7135 -1.42658 -14
    endloop
  endfacet
  facet normal -0.309017 0.951056 0
    outer loop
      vertex -47.7135 -1.42658 -14
      vertex -46.0365 -0.881678 -16
      vertex -47.7135 -1.42658 -16
    endloop
  endfacet
  facet normal 0.951056 -0.309017 0
    outer loop
      vertex -0.881678 -46.0365 -16
      vertex -0.881678 -46.0365 -14
      vertex -1.42658 -47.7135 -14
    endloop
  endfacet
  facet normal 0.951056 -0.309017 0
    outer loop
      vertex -1.42658 -47.7135 -16
      vertex -0.881678 -46.0365 -16
      vertex -1.42658 -47.7135 -14
    endloop
  endfacet
  facet normal 6.12323e-17 -1 0
    outer loop
      vertex 0.881678 -46.0365 -16
      vertex 0.881678 -46.0365 -14
      vertex -0.881678 -46.0365 -14
    endloop
  endfacet
  facet normal 6.12323e-17 -1 0
    outer loop
      vertex -0.881678 -46.0365 -16
      vertex 0.881678 -46.0365 -16
      vertex -0.881678 -46.0365 -14
    endloop
  endfacet
  facet normal -0.951056 -0.309017 0
    outer loop
      vertex 1.42659 -47.7135 -14
      vertex 0.881678 -46.0365 -14
      vertex 1.42659 -47.7135 -16
    endloop
  endfacet
  facet normal -0.951056 -0.309017 0
    outer loop
      vertex 1.42659 -47.7135 -16
      vertex 0.881678 -46.0365 -14
      vertex 0.881678 -46.0365 -16
    endloop
  endfacet
  facet normal -0.587785 0.809017 0
    outer loop
      vertex 1.42659 -47.7135 -14
      vertex 1.42659 -47.7135 -16
      vertex 2.98508e-15 -48.75 -14
    endloop
  endfacet
  facet normal -0.587785 0.809017 0
    outer loop
      vertex 2.98508e-15 -48.75 -14
      vertex 1.42659 -47.7135 -16
      vertex 2.98508e-15 -48.75 -16
    endloop
  endfacet
  facet normal 0.587785 0.809017 0
    outer loop
      vertex 2.98508e-15 -48.75 -14
      vertex 2.98508e-15 -48.75 -16
      vertex -1.42658 -47.7135 -14
    endloop
  endfacet
  facet normal 0.587785 0.809017 0
    outer loop
      vertex -1.42658 -47.7135 -14
      vertex 2.98508e-15 -48.75 -16
      vertex -1.42658 -47.7135 -16
    endloop
  endfacet
  facet normal 0.951056 0.309017 0
    outer loop
      vertex -1.42658 47.7135 -14
      vertex -0.881678 46.0365 -14
      vertex -0.881678 46.0365 -16
    endloop
  endfacet
  facet normal 0.951056 0.309017 0
    outer loop
      vertex -1.42658 47.7135 -16
      vertex -1.42658 47.7135 -14
      vertex -0.881678 46.0365 -16
    endloop
  endfacet
  facet normal 0.587785 -0.809017 0
    outer loop
      vertex 2.98508e-15 48.75 -16
      vertex 2.98508e-15 48.75 -14
      vertex -1.42658 47.7135 -14
    endloop
  endfacet
  facet normal 0.587785 -0.809017 0
    outer loop
      vertex -1.42658 47.7135 -16
      vertex 2.98508e-15 48.75 -16
      vertex -1.42658 47.7135 -14
    endloop
  endfacet
  facet normal -0.587785 -0.809017 0
    outer loop
      vertex 1.42659 47.7135 -16
      vertex 1.42659 47.7135 -14
      vertex 2.98508e-15 48.75 -14
    endloop
  endfacet
  facet normal -0.587785 -0.809017 0
    outer loop
      vertex 2.98508e-15 48.75 -16
      vertex 1.42659 47.7135 -16
      vertex 2.98508e-15 48.75 -14
    endloop
  endfacet
  facet normal -0.951056 0.309017 0
    outer loop
      vertex 1.42659 47.7135 -14
      vertex 1.42659 47.7135 -16
      vertex 0.881678 46.0365 -14
    endloop
  endfacet
  facet normal -0.951056 0.309017 0
    outer loop
      vertex 0.881678 46.0365 -14
      vertex 1.42659 47.7135 -16
      vertex 0.881678 46.0365 -16
    endloop
  endfacet
  facet normal 6.12323e-17 1 0
    outer loop
      vertex 0.881678 46.0365 -14
      vertex 0.881678 46.0365 -16
      vertex -0.881678 46.0365 -14
    endloop
  endfacet
  facet normal 6.12323e-17 1 0
    outer loop
      vertex -0.881678 46.0365 -14
      vertex 0.881678 46.0365 -16
      vertex -0.881678 46.0365 -16
    endloop
  endfacet
  facet normal 1 0 0
    outer loop
      vertex 46.0365 0.881678 -16
      vertex 46.0365 0.881678 -14
      vertex 46.0365 -0.881678 -14
    endloop
  endfacet
  facet normal 1 0 0
    outer loop
      vertex 46.0365 -0.881678 -16
      vertex 46.0365 0.881678 -16
      vertex 46.0365 -0.881678 -14
    endloop
  endfacet
  facet normal 0.309017 -0.951056 0
    outer loop
      vertex 47.7135 1.42658 -16
      vertex 47.7135 1.42658 -14
      vertex 46.0365 0.881678 -14
    endloop
  endfacet
  facet normal 0.309017 -0.951056 0
    outer loop
      vertex 46.0365 0.881678 -16
      vertex 47.7135 1.42658 -16
      vertex 46.0365 0.881678 -14
    endloop
  endfacet
  facet normal -0.809017 -0.587785 0
    outer loop
      vertex 48.75 0 -14
      vertex 47.7135 1.42658 -14
      vertex 48.75 0 -16
    endloop
  endfacet
  facet normal -0.809017 -0.587785 0
    outer loop
      vertex 48.75 0 -16
      vertex 47.7135 1.42658 -14
      vertex 47.7135 1.42658 -16
    endloop
  endfacet
  facet normal -0.809017 0.587785 0
    outer loop
      vertex 48.75 0 -14
      vertex 48.75 0 -16
      vertex 47.7135 -1.42658 -14
    endloop
  endfacet
  facet normal -0.809017 0.587785 0
    outer loop
      vertex 47.7135 -1.42658 -14
      vertex 48.75 0 -16
      vertex 47.7135 -1.42658 -16
    endloop
  endfacet
  facet normal 0.309017 0.951056 0
    outer loop
      vertex 47.7135 -1.42658 -14
      vertex 47.7135 -1.42658 -16
      vertex 46.0365 -0.881678 -14
    endloop
  endfacet
  facet normal 0.309017 0.951056 0
    outer loop
      vertex 46.0365 -0.881678 -14
      vertex 47.7135 -1.42658 -16
      vertex 46.0365 -0.881678 -16
    endloop
  endfacet
  facet normal 0 0 1
    outer loop
      vertex -53.1941 1.93136 -14
      vertex -53.5 6.55186e-15 -14
      vertex -53.1941 -1.93136 -14
    endloop
  endfacet
  facet normal 0 0 1
    outer loop
      vertex -50.9237 -5.05636 -14
      vertex -53.1941 1.93136 -14
      vertex -52.3064 -3.67366 -14
    endloop
  endfacet
  facet normal 0 0 1
    outer loop
      vertex -52.3064 -3.67366 -14
      vertex -53.1941 1.93136 -14
      vertex -53.1941 -1.93136 -14
    endloop
  endfacet
  facet normal 0 0 1
    outer loop
      vertex -49.1814 -5.9441 -14
      vertex -53.1941 1.93136 -14
      vertex -50.9237 -5.05636 -14
    endloop
  endfacet
  facet normal 0 0 1
    outer loop
      vertex -47.25 -6.25 -14
      vertex -53.1941 1.93136 -14
      vertex -49.1814 -5.9441 -14
    endloop
  endfacet
  facet normal 0 0 1
    outer loop
      vertex -42 -6.25 -14
      vertex -53.1941 1.93136 -14
      vertex -47.25 -6.25 -14
    endloop
  endfacet
  facet normal 0 0 1
    outer loop
      vertex -47.7135 -1.42658 -14
      vertex -53.1941 1.93136 -14
      vertex -42 -6.25 -14
    endloop
  endfacet
  facet normal 0 0 1
    outer loop
      vertex -47.25 6.25 -14
      vertex -53.1941 1.93136 -14
      vertex -42 6.25 -14
    endloop
  endfacet
  facet normal 0 0 1
    outer loop
      vertex -49.1814 5.9441 -14
      vertex -53.1941 1.93136 -14
      vertex -47.25 6.25 -14
    endloop
  endfacet
  facet normal 0 0 1
    outer loop
      vertex -50.9237 5.05636 -14
      vertex -53.1941 1.93136 -14
      vertex -49.1814 5.9441 -14
    endloop
  endfacet
  facet normal 0 0 1
    outer loop
      vertex -52.3064 3.67366 -14
      vertex -53.1941 1.93136 -14
      vertex -50.9237 5.05636 -14
    endloop
  endfacet
  facet normal 0 0 1
    outer loop
      vertex -46.0365 -0.881678 -14
      vertex -47.7135 -1.42658 -14
      vertex -42 -6.25 -14
    endloop
  endfacet
  facet normal 0 0 1
    outer loop
      vertex -48.75 5.97015e-15 -14
      vertex -53.1941 1.93136 -14
      vertex -47.7135 -1.42658 -14
    endloop
  endfacet
  facet normal 0 0 1
    outer loop
      vertex -47.7135 1.42659 -14
      vertex -53.1941 1.93136 -14
      vertex -48.75 5.97015e-15 -14
    endloop
  endfacet
  facet normal 0 0 1
    outer loop
      vertex -46.0365 0.881678 -14
      vertex -46.0365 -0.881678 -14
      vertex -42 6.25 -14
    endloop
  endfacet
  facet normal 0 0 1
    outer loop
      vertex -42 6.25 -14
      vertex -53.1941 1.93136 -14
      vertex -47.7135 1.42659 -14
    endloop
  endfacet
  facet normal 0 0 1
    outer loop
      vertex -42 6.25 -14
      vertex -46.0365 -0.881678 -14
      vertex -42 -6.25 -14
    endloop
  endfacet
  facet normal 0 0 1
    outer loop
      vertex -47.7135 1.42659 -14
      vertex -46.0365 0.881678 -14
      vertex -42 6.25 -14
    endloop
  endfacet
  facet normal 0 0 1
    outer loop
      vertex -36.5237 -40 16
      vertex -42 -42 16
      vertex 42 -42 16
    endloop
  endfacet
  facet normal 0 0 1
    outer loop
      vertex -39.1424 37.7455 16
      vertex -42 42 16
      vertex -38.3333 35.8333 16
    endloop
  endfacet
  facet normal 0 0 1
    outer loop
      vertex -35.8333 -38.3333 16
      vertex -36.5656 -36.5656 16
      vertex -40 -36.5237 16
    endloop
  endfacet
  facet normal 0 0 1
    outer loop
      vertex -42 42 16
      vertex -42 -42 16
      vertex -40 -36.5237 16
    endloop
  endfacet
  facet normal 0 0 1
    outer loop
      vertex -42 42 16
      vertex -40 -36.5237 16
      vertex -40 36.5237 16
    endloop
  endfacet
  facet normal 0 0 1
    outer loop
      vertex -42 42 16
      vertex -40 36.5237 16
      vertex -38.3333 35.8333 16
    endloop
  endfacet
  facet normal 0 0 1
    outer loop
      vertex 36.5656 36.5656 16
      vertex 38.3333 35.8333 16
      vertex 36.5237 40 16
    endloop
  endfacet
  facet normal 0 0 1
    outer loop
      vertex -36.5237 40 16
      vertex -42 42 16
      vertex -35.8333 38.3333 16
    endloop
  endfacet
  facet normal 0 0 1
    outer loop
      vertex 42 42 16
      vertex -42 42 16
      vertex -36.5237 40 16
    endloop
  endfacet
  facet normal 0 0 1
    outer loop
      vertex 36.5237 40 16
      vertex 35.8333 38.3333 16
      vertex 36.5656 36.5656 16
    endloop
  endfacet
  facet normal 0 0 1
    outer loop
      vertex 36.5656 -36.5656 16
      vertex 37.5243 -38.9211 16
      vertex 37.5243 -37.7455 16
    endloop
  endfacet
  facet normal 0 0 1
    outer loop
      vertex 37.5243 37.7455 16
      vertex 36.5237 40 16
      vertex 38.3333 35.8333 16
    endloop
  endfacet
  facet normal 0 0 1
    outer loop
      vertex 42 42 16
      vertex 40 36.5237 16
      vertex 42 -42 16
    endloop
  endfacet
  facet normal 0 0 1
    outer loop
      vertex 42 42 16
      vertex 38.3333 35.8333 16
      vertex 40 36.5237 16
    endloop
  endfacet
  facet normal 0 0 1
    outer loop
      vertex 40 -36.5237 16
      vertex 38.3333 -35.8333 16
      vertex 42 -42 16
    endloop
  endfacet
  facet normal 0 0 1
    outer loop
      vertex 39.3333 -38.3333 16
      vertex 38.6424 -39.2844 16
      vertex 42 -42 16
    endloop
  endfacet
  facet normal 0 0 1
    outer loop
      vertex 37.5243 -38.9211 16
      vertex 35.8333 -38.3333 16
      vertex 42 -42 16
    endloop
  endfacet
  facet normal 0 0 1
    outer loop
      vertex -39.1424 38.9211 16
      vertex -38.0243 39.2844 16
      vertex -42 42 16
    endloop
  endfacet
  facet normal 0 0 1
    outer loop
      vertex 35.8333 -38.3333 16
      vertex 36.5237 -40 16
      vertex 42 -42 16
    endloop
  endfacet
  facet normal 0 0 1
    outer loop
      vertex -39.1424 -37.7455 16
      vertex -38.0243 -37.3823 16
      vertex -40 -36.5237 16
    endloop
  endfacet
  facet normal 0 0 1
    outer loop
      vertex -39.1424 -38.9211 16
      vertex -42 -42 16
      vertex -36.5237 -40 16
    endloop
  endfacet
  facet normal 0 0 1
    outer loop
      vertex -37.3333 -38.3333 16
      vertex -36.5237 -40 16
      vertex -35.8333 -38.3333 16
    endloop
  endfacet
  facet normal 0 0 1
    outer loop
      vertex -38.3333 -35.8333 16
      vertex -40 -36.5237 16
      vertex -36.5656 -36.5656 16
    endloop
  endfacet
  facet normal 0 0 1
    outer loop
      vertex -38.0243 -39.2844 16
      vertex -39.1424 -38.9211 16
      vertex -36.5237 -40 16
    endloop
  endfacet
  facet normal 0 0 1
    outer loop
      vertex -40 -36.5237 16
      vertex -42 -42 16
      vertex -39.1424 -38.9211 16
    endloop
  endfacet
  facet normal 0 0 1
    outer loop
      vertex -40 -36.5237 16
      vertex -39.1424 -38.9211 16
      vertex -39.1424 -37.7455 16
    endloop
  endfacet
  facet normal 0 0 1
    outer loop
      vertex -40 -36.5237 16
      vertex -38.0243 -37.3823 16
      vertex -35.8333 -38.3333 16
    endloop
  endfacet
  facet normal 0 0 1
    outer loop
      vertex -38.0243 -37.3823 16
      vertex -37.3333 -38.3333 16
      vertex -35.8333 -38.3333 16
    endloop
  endfacet
  facet normal 0 0 1
    outer loop
      vertex -37.3333 38.3333 16
      vertex -38.0243 37.3823 16
      vertex -36.5656 36.5656 16
    endloop
  endfacet
  facet normal 0 0 1
    outer loop
      vertex -36.5656 36.5656 16
      vertex -39.1424 37.7455 16
      vertex -38.3333 35.8333 16
    endloop
  endfacet
  facet normal 0 0 1
    outer loop
      vertex -39.1424 38.9211 16
      vertex -42 42 16
      vertex -39.1424 37.7455 16
    endloop
  endfacet
  facet normal 0 0 1
    outer loop
      vertex 37.5243 -37.7455 16
      vertex 38.6424 -37.3823 16
      vertex 36.5656 -36.5656 16
    endloop
  endfacet
  facet normal 0 0 1
    outer loop
      vertex -35.8333 38.3333 16
      vertex -42 42 16
      vertex -38.0243 39.2844 16
    endloop
  endfacet
  facet normal 0 0 1
    outer loop
      vertex -35.8333 38.3333 16
      vertex -37.3333 38.3333 16
      vertex -36.5656 36.5656 16
    endloop
  endfacet
  facet normal 0 0 1
    outer loop
      vertex -35.8333 38.3333 16
      vertex -38.0243 39.2844 16
      vertex -37.3333 38.3333 16
    endloop
  endfacet
  facet normal 0 0 1
    outer loop
      vertex -36.5656 36.5656 16
      vertex -38.0243 37.3823 16
      vertex -39.1424 37.7455 16
    endloop
  endfacet
  facet normal 0 0 1
    outer loop
      vertex 38.6424 39.2844 16
      vertex 39.3333 38.3333 16
      vertex 42 42 16
    endloop
  endfacet
  facet normal 0 0 1
    outer loop
      vertex 38.6424 -39.2844 16
      vertex 37.5243 -38.9211 16
      vertex 42 -42 16
    endloop
  endfacet
  facet normal 0 0 1
    outer loop
      vertex -37.3333 -38.3333 16
      vertex -38.0243 -39.2844 16
      vertex -36.5237 -40 16
    endloop
  endfacet
  facet normal 0 0 1
    outer loop
      vertex 36.5237 -40 16
      vertex -36.5237 -40 16
      vertex 42 -42 16
    endloop
  endfacet
  facet normal 0 0 1
    outer loop
      vertex 38.3333 -35.8333 16
      vertex 38.6424 -37.3823 16
      vertex 42 -42 16
    endloop
  endfacet
  facet normal 0 0 1
    outer loop
      vertex 38.3333 -35.8333 16
      vertex 36.5656 -36.5656 16
      vertex 38.6424 -37.3823 16
    endloop
  endfacet
  facet normal 0 0 1
    outer loop
      vertex 38.6424 -37.3823 16
      vertex 39.3333 -38.3333 16
      vertex 42 -42 16
    endloop
  endfacet
  facet normal 0 0 1
    outer loop
      vertex 38.6424 37.3823 16
      vertex 37.5243 37.7455 16
      vertex 38.3333 35.8333 16
    endloop
  endfacet
  facet normal 0 0 1
    outer loop
      vertex 37.5243 38.9211 16
      vertex 36.5237 40 16
      vertex 37.5243 37.7455 16
    endloop
  endfacet
  facet normal 0 0 1
    outer loop
      vertex 42 42 16
      vertex 36.5237 40 16
      vertex 37.5243 38.9211 16
    endloop
  endfacet
  facet normal 0 0 1
    outer loop
      vertex 42 42 16
      vertex 37.5243 38.9211 16
      vertex 38.6424 39.2844 16
    endloop
  endfacet
  facet normal 0 0 1
    outer loop
      vertex 42 42 16
      vertex 39.3333 38.3333 16
      vertex 38.3333 35.8333 16
    endloop
  endfacet
  facet normal 0 0 1
    outer loop
      vertex 39.3333 38.3333 16
      vertex 38.6424 37.3823 16
      vertex 38.3333 35.8333 16
    endloop
  endfacet
  facet normal 0 0 1
    outer loop
      vertex -36.5237 40 16
      vertex 36.5237 40 16
      vertex 42 42 16
    endloop
  endfacet
  facet normal 0 0 1
    outer loop
      vertex 40 36.5237 16
      vertex 40 -36.5237 16
      vertex 42 -42 16
    endloop
  endfacet
  facet normal 0 0 1
    outer loop
      vertex 36.5656 -36.5656 16
      vertex 35.8333 -38.3333 16
      vertex 37.5243 -38.9211 16
    endloop
  endfacet
  facet normal 0 0 1
    outer loop
      vertex 6.25 -42 -14
      vertex -6.25 -42 -14
      vertex -6.25 -47.25 -14
    endloop
  endfacet
  facet normal 0 0 1
    outer loop
      vertex -0.881678 -46.0365 -14
      vertex 0.881678 -46.0365 -14
      vertex 6.25 -42 -14
    endloop
  endfacet
  facet normal 0 0 1
    outer loop
      vertex -0.881678 -46.0365 -14
      vertex 6.25 -42 -14
      vertex -6.25 -47.25 -14
    endloop
  endfacet
  facet normal 0 0 1
    outer loop
      vertex 3.27593e-15 -53.5 -14
      vertex 6.25 -42 -14
      vertex -1.93136 -53.1941 -14
    endloop
  endfacet
  facet normal 0 0 1
    outer loop
      vertex 1.93136 -53.1941 -14
      vertex 6.25 -42 -14
      vertex 3.27593e-15 -53.5 -14
    endloop
  endfacet
  facet normal 0 0 1
    outer loop
      vertex 3.67366 -52.3064 -14
      vertex 6.25 -42 -14
      vertex 1.93136 -53.1941 -14
    endloop
  endfacet
  facet normal 0 0 1
    outer loop
      vertex 5.05636 -50.9237 -14
      vertex 6.25 -42 -14
      vertex 3.67366 -52.3064 -14
    endloop
  endfacet
  facet normal 0 0 1
    outer loop
      vertex 5.9441 -49.1814 -14
      vertex 6.25 -42 -14
      vertex 5.05636 -50.9237 -14
    endloop
  endfacet
  facet normal 0 0 1
    outer loop
      vertex 6.25 -47.25 -14
      vertex 6.25 -42 -14
      vertex 5.9441 -49.1814 -14
    endloop
  endfacet
  facet normal 0 0 1
    outer loop
      vertex -5.05636 -50.9237 -14
      vertex -1.42658 -47.7135 -14
      vertex -5.9441 -49.1814 -14
    endloop
  endfacet
  facet normal 0 0 1
    outer loop
      vertex -5.9441 -49.1814 -14
      vertex -0.881678 -46.0365 -14
      vertex -6.25 -47.25 -14
    endloop
  endfacet
  facet normal 0 0 1
    outer loop
      vertex 0.881678 -46.0365 -14
      vertex 1.42659 -47.7135 -14
      vertex 6.25 -42 -14
    endloop
  endfacet
  facet normal 0 0 1
    outer loop
      vertex -1.42658 -47.7135 -14
      vertex -0.881678 -46.0365 -14
      vertex -5.9441 -49.1814 -14
    endloop
  endfacet
  facet normal 0 0 1
    outer loop
      vertex -1.93136 -53.1941 -14
      vertex 1.42659 -47.7135 -14
      vertex -3.67366 -52.3064 -14
    endloop
  endfacet
  facet normal 0 0 1
    outer loop
      vertex -1.93136 -53.1941 -14
      vertex 6.25 -42 -14
      vertex 1.42659 -47.7135 -14
    endloop
  endfacet
  facet normal 0 0 1
    outer loop
      vertex 1.42659 -47.7135 -14
      vertex 2.98508e-15 -48.75 -14
      vertex -3.67366 -52.3064 -14
    endloop
  endfacet
  facet normal 0 0 1
    outer loop
      vertex 2.98508e-15 -48.75 -14
      vertex -5.05636 -50.9237 -14
      vertex -3.67366 -52.3064 -14
    endloop
  endfacet
  facet normal 0 0 1
    outer loop
      vertex 2.98508e-15 -48.75 -14
      vertex -1.42658 -47.7135 -14
      vertex -5.05636 -50.9237 -14
    endloop
  endfacet
  facet normal 0 0 1
    outer loop
      vertex 42 6.25 -14
      vertex 42 -6.25 -14
      vertex 47.25 -6.25 -14
    endloop
  endfacet
  facet normal 0 0 1
    outer loop
      vertex 46.0365 -0.881678 -14
      vertex 42 6.25 -14
      vertex 47.25 -6.25 -14
    endloop
  endfacet
  facet normal 0 0 1
    outer loop
      vertex 48.75 0 -14
      vertex 47.7135 -1.42658 -14
      vertex 50.9237 -5.05636 -14
    endloop
  endfacet
  facet normal 0 0 1
    outer loop
      vertex 53.5 0 -14
      vertex 42 6.25 -14
      vertex 53.1941 -1.93136 -14
    endloop
  endfacet
  facet normal 0 0 1
    outer loop
      vertex 53.1941 1.93136 -14
      vertex 42 6.25 -14
      vertex 53.5 0 -14
    endloop
  endfacet
  facet normal 0 0 1
    outer loop
      vertex 52.3064 3.67366 -14
      vertex 42 6.25 -14
      vertex 53.1941 1.93136 -14
    endloop
  endfacet
  facet normal 0 0 1
    outer loop
      vertex 50.9237 5.05636 -14
      vertex 42 6.25 -14
      vertex 52.3064 3.67366 -14
    endloop
  endfacet
  facet normal 0 0 1
    outer loop
      vertex 49.1814 5.9441 -14
      vertex 42 6.25 -14
      vertex 50.9237 5.05636 -14
    endloop
  endfacet
  facet normal 0 0 1
    outer loop
      vertex 47.25 6.25 -14
      vertex 42 6.25 -14
      vertex 49.1814 5.9441 -14
    endloop
  endfacet
  facet normal 0 0 1
    outer loop
      vertex 49.1814 -5.9441 -14
      vertex 46.0365 -0.881678 -14
      vertex 47.25 -6.25 -14
    endloop
  endfacet
  facet normal 0 0 1
    outer loop
      vertex 48.75 0 -14
      vertex 50.9237 -5.05636 -14
      vertex 52.3064 -3.67366 -14
    endloop
  endfacet
  facet normal 0 0 1
    outer loop
      vertex 53.1941 -1.93136 -14
      vertex 47.7135 1.42658 -14
      vertex 52.3064 -3.67366 -14
    endloop
  endfacet
  facet normal 0 0 1
    outer loop
      vertex 53.1941 -1.93136 -14
      vertex 42 6.25 -14
      vertex 47.7135 1.42658 -14
    endloop
  endfacet
  facet normal 0 0 1
    outer loop
      vertex 47.7135 1.42658 -14
      vertex 48.75 0 -14
      vertex 52.3064 -3.67366 -14
    endloop
  endfacet
  facet normal 0 0 1
    outer loop
      vertex 50.9237 -5.05636 -14
      vertex 47.7135 -1.42658 -14
      vertex 49.1814 -5.9441 -14
    endloop
  endfacet
  facet normal 0 0 1
    outer loop
      vertex 46.0365 -0.881678 -14
      vertex 46.0365 0.881678 -14
      vertex 42 6.25 -14
    endloop
  endfacet
  facet normal 0 0 1
    outer loop
      vertex 47.7135 -1.42658 -14
      vertex 46.0365 -0.881678 -14
      vertex 49.1814 -5.9441 -14
    endloop
  endfacet
  facet normal 0 0 1
    outer loop
      vertex 46.0365 0.881678 -14
      vertex 47.7135 1.42658 -14
      vertex 42 6.25 -14
    endloop
  endfacet
  facet normal 0 0 1
    outer loop
      vertex -6.25 47.25 -14
      vertex -6.25 42 -14
      vertex 6.25 42 -14
    endloop
  endfacet
  facet normal 0 0 1
    outer loop
      vertex -0.881678 46.0365 -14
      vertex -6.25 47.25 -14
      vertex 6.25 42 -14
    endloop
  endfacet
  facet normal 0 0 1
    outer loop
      vertex 3.67366 52.3064 -14
      vertex -6.25 47.25 -14
      vertex 5.05636 50.9237 -14
    endloop
  endfacet
  facet normal 0 0 1
    outer loop
      vertex 1.93136 53.1941 -14
      vertex -6.25 47.25 -14
      vertex 3.67366 52.3064 -14
    endloop
  endfacet
  facet normal 0 0 1
    outer loop
      vertex 3.27593e-15 53.5 -14
      vertex -6.25 47.25 -14
      vertex 1.93136 53.1941 -14
    endloop
  endfacet
  facet normal 0 0 1
    outer loop
      vertex -1.93136 53.1941 -14
      vertex -6.25 47.25 -14
      vertex 3.27593e-15 53.5 -14
    endloop
  endfacet
  facet normal 0 0 1
    outer loop
      vertex -3.67366 52.3064 -14
      vertex -6.25 47.25 -14
      vertex -1.93136 53.1941 -14
    endloop
  endfacet
  facet normal 0 0 1
    outer loop
      vertex -5.05636 50.9237 -14
      vertex -6.25 47.25 -14
      vertex -3.67366 52.3064 -14
    endloop
  endfacet
  facet normal 0 0 1
    outer loop
      vertex -5.9441 49.1814 -14
      vertex -6.25 47.25 -14
      vertex -5.05636 50.9237 -14
    endloop
  endfacet
  facet normal 0 0 1
    outer loop
      vertex 0.881678 46.0365 -14
      vertex -0.881678 46.0365 -14
      vertex 6.25 42 -14
    endloop
  endfacet
  facet normal 0 0 1
    outer loop
      vertex -1.42658 47.7135 -14
      vertex 2.98508e-15 48.75 -14
      vertex -6.25 47.25 -14
    endloop
  endfacet
  facet normal 0 0 1
    outer loop
      vertex 2.98508e-15 48.75 -14
      vertex 1.42659 47.7135 -14
      vertex 5.9441 49.1814 -14
    endloop
  endfacet
  facet normal 0 0 1
    outer loop
      vertex 5.05636 50.9237 -14
      vertex 2.98508e-15 48.75 -14
      vertex 5.9441 49.1814 -14
    endloop
  endfacet
  facet normal 0 0 1
    outer loop
      vertex 5.05636 50.9237 -14
      vertex -6.25 47.25 -14
      vertex 2.98508e-15 48.75 -14
    endloop
  endfacet
  facet normal 0 0 1
    outer loop
      vertex 5.9441 49.1814 -14
      vertex 1.42659 47.7135 -14
      vertex 6.25 47.25 -14
    endloop
  endfacet
  facet normal 0 0 1
    outer loop
      vertex 6.25 47.25 -14
      vertex 0.881678 46.0365 -14
      vertex 6.25 42 -14
    endloop
  endfacet
  facet normal 0 0 1
    outer loop
      vertex -0.881678 46.0365 -14
      vertex -1.42658 47.7135 -14
      vertex -6.25 47.25 -14
    endloop
  endfacet
  facet normal 0 0 1
    outer loop
      vertex 1.42659 47.7135 -14
      vertex 0.881678 46.0365 -14
      vertex 6.25 47.25 -14
    endloop
  endfacet
  facet normal 1 0 0
    outer loop
      vertex -40 36.5237 -13
      vertex -40 36.5237 16
      vertex -40 -36.5237 16
    endloop
  endfacet
  facet normal 1 0 0
    outer loop
      vertex -40 -36.5237 -13
      vertex -40 36.5237 -13
      vertex -40 -36.5237 16
    endloop
  endfacet
  facet normal -0.382683 0.92388 0
    outer loop
      vertex -40 -36.5237 -13
      vertex -40 -36.5237 16
      vertex -38.3333 -35.8333 -13
    endloop
  endfacet
  facet normal -0.382683 0.92388 0
    outer loop
      vertex -38.3333 -35.8333 -13
      vertex -40 -36.5237 16
      vertex -38.3333 -35.8333 16
    endloop
  endfacet
  facet normal 0.382683 0.92388 0
    outer loop
      vertex -38.3333 -35.8333 -13
      vertex -38.3333 -35.8333 16
      vertex -36.5656 -36.5656 -13
    endloop
  endfacet
  facet normal 0.382683 0.92388 0
    outer loop
      vertex -36.5656 -36.5656 -13
      vertex -38.3333 -35.8333 16
      vertex -36.5656 -36.5656 16
    endloop
  endfacet
  facet normal 0.92388 0.382683 0
    outer loop
      vertex -35.8333 -38.3333 -13
      vertex -36.5656 -36.5656 -13
      vertex -36.5656 -36.5656 16
    endloop
  endfacet
  facet normal 0.92388 0.382683 0
    outer loop
      vertex -35.8333 -38.3333 16
      vertex -35.8333 -38.3333 -13
      vertex -36.5656 -36.5656 16
    endloop
  endfacet
  facet normal 0.92388 -0.382683 0
    outer loop
      vertex -36.5237 -40 16
      vertex -36.5237 -40 -13
      vertex -35.8333 -38.3333 -13
    endloop
  endfacet
  facet normal 0.92388 -0.382683 0
    outer loop
      vertex -35.8333 -38.3333 16
      vertex -36.5237 -40 16
      vertex -35.8333 -38.3333 -13
    endloop
  endfacet
  facet normal 0 1 0
    outer loop
      vertex 36.5237 -40 16
      vertex 36.5237 -40 -13
      vertex -36.5237 -40 16
    endloop
  endfacet
  facet normal 0 1 0
    outer loop
      vertex -36.5237 -40 16
      vertex 36.5237 -40 -13
      vertex -36.5237 -40 -13
    endloop
  endfacet
  facet normal -0.92388 -0.382683 0
    outer loop
      vertex 35.8333 -38.3333 -13
      vertex 36.5237 -40 -13
      vertex 35.8333 -38.3333 16
    endloop
  endfacet
  facet normal -0.92388 -0.382683 0
    outer loop
      vertex 35.8333 -38.3333 16
      vertex 36.5237 -40 -13
      vertex 36.5237 -40 16
    endloop
  endfacet
  facet normal -0.92388 0.382683 0
    outer loop
      vertex 35.8333 -38.3333 -13
      vertex 35.8333 -38.3333 16
      vertex 36.5656 -36.5656 -13
    endloop
  endfacet
  facet normal -0.92388 0.382683 0
    outer loop
      vertex 36.5656 -36.5656 -13
      vertex 35.8333 -38.3333 16
      vertex 36.5656 -36.5656 16
    endloop
  endfacet
  facet normal -0.382683 0.92388 0
    outer loop
      vertex 36.5656 -36.5656 -13
      vertex 36.5656 -36.5656 16
      vertex 38.3333 -35.8333 -13
    endloop
  endfacet
  facet normal -0.382683 0.92388 0
    outer loop
      vertex 38.3333 -35.8333 -13
      vertex 36.5656 -36.5656 16
      vertex 38.3333 -35.8333 16
    endloop
  endfacet
  facet normal 0.382683 0.92388 0
    outer loop
      vertex 38.3333 -35.8333 -13
      vertex 38.3333 -35.8333 16
      vertex 40 -36.5237 -13
    endloop
  endfacet
  facet normal 0.382683 0.92388 0
    outer loop
      vertex 40 -36.5237 -13
      vertex 38.3333 -35.8333 16
      vertex 40 -36.5237 16
    endloop
  endfacet
  facet normal -1 0 0
    outer loop
      vertex 40 36.5237 16
      vertex 40 36.5237 -13
      vertex 40 -36.5237 16
    endloop
  endfacet
  facet normal -1 0 0
    outer loop
      vertex 40 -36.5237 16
      vertex 40 36.5237 -13
      vertex 40 -36.5237 -13
    endloop
  endfacet
  facet normal 0.382683 -0.92388 0
    outer loop
      vertex 38.3333 35.8333 16
      vertex 38.3333 35.8333 -13
      vertex 40 36.5237 -13
    endloop
  endfacet
  facet normal 0.382683 -0.92388 0
    outer loop
      vertex 40 36.5237 16
      vertex 38.3333 35.8333 16
      vertex 40 36.5237 -13
    endloop
  endfacet
  facet normal -0.382683 -0.92388 0
    outer loop
      vertex 36.5656 36.5656 16
      vertex 36.5656 36.5656 -13
      vertex 38.3333 35.8333 -13
    endloop
  endfacet
  facet normal -0.382683 -0.92388 0
    outer loop
      vertex 38.3333 35.8333 16
      vertex 36.5656 36.5656 16
      vertex 38.3333 35.8333 -13
    endloop
  endfacet
  facet normal -0.92388 -0.382683 0
    outer loop
      vertex 35.8333 38.3333 -13
      vertex 36.5656 36.5656 -13
      vertex 35.8333 38.3333 16
    endloop
  endfacet
  facet normal -0.92388 -0.382683 0
    outer loop
      vertex 35.8333 38.3333 16
      vertex 36.5656 36.5656 -13
      vertex 36.5656 36.5656 16
    endloop
  endfacet
  facet normal -0.92388 0.382683 0
    outer loop
      vertex 35.8333 38.3333 -13
      vertex 35.8333 38.3333 16
      vertex 36.5237 40 -13
    endloop
  endfacet
  facet normal -0.92388 0.382683 0
    outer loop
      vertex 36.5237 40 -13
      vertex 35.8333 38.3333 16
      vertex 36.5237 40 16
    endloop
  endfacet
  facet normal 0 -1 0
    outer loop
      vertex 36.5237 40 -13
      vertex 36.5237 40 16
      vertex -36.5237 40 16
    endloop
  endfacet
  facet normal 0 -1 0
    outer loop
      vertex -36.5237 40 -13
      vertex 36.5237 40 -13
      vertex -36.5237 40 16
    endloop
  endfacet
  facet normal 0.92388 0.382683 0
    outer loop
      vertex -35.8333 38.3333 -13
      vertex -36.5237 40 -13
      vertex -36.5237 40 16
    endloop
  endfacet
  facet normal 0.92388 0.382683 0
    outer loop
      vertex -35.8333 38.3333 16
      vertex -35.8333 38.3333 -13
      vertex -36.5237 40 16
    endloop
  endfacet
  facet normal 0.92388 -0.382683 0
    outer loop
      vertex -36.5656 36.5656 16
      vertex -36.5656 36.5656 -13
      vertex -35.8333 38.3333 -13
    endloop
  endfacet
  facet normal 0.92388 -0.382683 0
    outer loop
      vertex -35.8333 38.3333 16
      vertex -36.5656 36.5656 16
      vertex -35.8333 38.3333 -13
    endloop
  endfacet
  facet normal 0.382683 -0.92388 0
    outer loop
      vertex -38.3333 35.8333 16
      vertex -38.3333 35.8333 -13
      vertex -36.5656 36.5656 -13
    endloop
  endfacet
  facet normal 0.382683 -0.92388 0
    outer loop
      vertex -36.5656 36.5656 16
      vertex -38.3333 35.8333 16
      vertex -36.5656 36.5656 -13
    endloop
  endfacet
  facet normal -0.382683 -0.92388 0
    outer loop
      vertex -40 36.5237 16
      vertex -40 36.5237 -13
      vertex -38.3333 35.8333 -13
    endloop
  endfacet
  facet normal -0.382683 -0.92388 0
    outer loop
      vertex -38.3333 35.8333 16
      vertex -40 36.5237 16
      vertex -38.3333 35.8333 -13
    endloop
  endfacet
  facet normal 1 0 0
    outer loop
      vertex -39.1424 -37.7455 1
      vertex -39.1424 -37.7455 16
      vertex -39.1424 -38.9211 16
    endloop
  endfacet
  facet normal 1 0 0
    outer loop
      vertex -39.1424 -38.9211 1
      vertex -39.1424 -37.7455 1
      vertex -39.1424 -38.9211 16
    endloop
  endfacet
  facet normal 0.309018 0.951056 0
    outer loop
      vertex -38.0243 -39.2844 16
      vertex -38.0243 -39.2844 1
      vertex -39.1424 -38.9211 16
    endloop
  endfacet
  facet normal 0.309018 0.951056 0
    outer loop
      vertex -39.1424 -38.9211 16
      vertex -38.0243 -39.2844 1
      vertex -39.1424 -38.9211 1
    endloop
  endfacet
  facet normal -0.809017 0.587785 0
    outer loop
      vertex -37.3333 -38.3333 16
      vertex -37.3333 -38.3333 1
      vertex -38.0243 -39.2844 16
    endloop
  endfacet
  facet normal -0.809017 0.587785 0
    outer loop
      vertex -38.0243 -39.2844 16
      vertex -37.3333 -38.3333 1
      vertex -38.0243 -39.2844 1
    endloop
  endfacet
  facet normal -0.809017 -0.587785 0
    outer loop
      vertex -37.3333 -38.3333 16
      vertex -38.0243 -37.3823 16
      vertex -37.3333 -38.3333 1
    endloop
  endfacet
  facet normal -0.809017 -0.587785 0
    outer loop
      vertex -37.3333 -38.3333 1
      vertex -38.0243 -37.3823 16
      vertex -38.0243 -37.3823 1
    endloop
  endfacet
  facet normal 0.309018 -0.951056 0
    outer loop
      vertex -38.0243 -37.3823 1
      vertex -38.0243 -37.3823 16
      vertex -39.1424 -37.7455 16
    endloop
  endfacet
  facet normal 0.309018 -0.951056 0
    outer loop
      vertex -39.1424 -37.7455 1
      vertex -38.0243 -37.3823 1
      vertex -39.1424 -37.7455 16
    endloop
  endfacet
  facet normal 1 0 0
    outer loop
      vertex -39.1424 38.9211 1
      vertex -39.1424 38.9211 16
      vertex -39.1424 37.7455 16
    endloop
  endfacet
  facet normal 1 0 0
    outer loop
      vertex -39.1424 37.7455 1
      vertex -39.1424 38.9211 1
      vertex -39.1424 37.7455 16
    endloop
  endfacet
  facet normal 0.309018 0.951056 0
    outer loop
      vertex -38.0243 37.3823 16
      vertex -38.0243 37.3823 1
      vertex -39.1424 37.7455 16
    endloop
  endfacet
  facet normal 0.309018 0.951056 0
    outer loop
      vertex -39.1424 37.7455 16
      vertex -38.0243 37.3823 1
      vertex -39.1424 37.7455 1
    endloop
  endfacet
  facet normal -0.809017 0.587785 0
    outer loop
      vertex -37.3333 38.3333 16
      vertex -37.3333 38.3333 1
      vertex -38.0243 37.3823 16
    endloop
  endfacet
  facet normal -0.809017 0.587785 0
    outer loop
      vertex -38.0243 37.3823 16
      vertex -37.3333 38.3333 1
      vertex -38.0243 37.3823 1
    endloop
  endfacet
  facet normal -0.809017 -0.587785 0
    outer loop
      vertex -37.3333 38.3333 16
      vertex -38.0243 39.2844 16
      vertex -37.3333 38.3333 1
    endloop
  endfacet
  facet normal -0.809017 -0.587785 0
    outer loop
      vertex -37.3333 38.3333 1
      vertex -38.0243 39.2844 16
      vertex -38.0243 39.2844 1
    endloop
  endfacet
  facet normal 0.309018 -0.951056 0
    outer loop
      vertex -38.0243 39.2844 1
      vertex -38.0243 39.2844 16
      vertex -39.1424 38.9211 16
    endloop
  endfacet
  facet normal 0.309018 -0.951056 0
    outer loop
      vertex -39.1424 38.9211 1
      vertex -38.0243 39.2844 1
      vertex -39.1424 38.9211 16
    endloop
  endfacet
  facet normal 1 0 0
    outer loop
      vertex 37.5243 -37.7455 1
      vertex 37.5243 -37.7455 16
      vertex 37.5243 -38.9211 16
    endloop
  endfacet
  facet normal 1 0 0
    outer loop
      vertex 37.5243 -38.9211 1
      vertex 37.5243 -37.7455 1
      vertex 37.5243 -38.9211 16
    endloop
  endfacet
  facet normal 0.309018 0.951056 0
    outer loop
      vertex 38.6424 -39.2844 16
      vertex 38.6424 -39.2844 1
      vertex 37.5243 -38.9211 16
    endloop
  endfacet
  facet normal 0.309018 0.951056 0
    outer loop
      vertex 37.5243 -38.9211 16
      vertex 38.6424 -39.2844 1
      vertex 37.5243 -38.9211 1
    endloop
  endfacet
  facet normal -0.809017 0.587785 0
    outer loop
      vertex 39.3333 -38.3333 16
      vertex 39.3333 -38.3333 1
      vertex 38.6424 -39.2844 16
    endloop
  endfacet
  facet normal -0.809017 0.587785 0
    outer loop
      vertex 38.6424 -39.2844 16
      vertex 39.3333 -38.3333 1
      vertex 38.6424 -39.2844 1
    endloop
  endfacet
  facet normal -0.809017 -0.587785 0
    outer loop
      vertex 39.3333 -38.3333 16
      vertex 38.6424 -37.3823 16
      vertex 39.3333 -38.3333 1
    endloop
  endfacet
  facet normal -0.809017 -0.587785 0
    outer loop
      vertex 39.3333 -38.3333 1
      vertex 38.6424 -37.3823 16
      vertex 38.6424 -37.3823 1
    endloop
  endfacet
  facet normal 0.309018 -0.951056 0
    outer loop
      vertex 38.6424 -37.3823 1
      vertex 38.6424 -37.3823 16
      vertex 37.5243 -37.7455 16
    endloop
  endfacet
  facet normal 0.309018 -0.951056 0
    outer loop
      vertex 37.5243 -37.7455 1
      vertex 38.6424 -37.3823 1
      vertex 37.5243 -37.7455 16
    endloop
  endfacet
  facet normal 1 0 0
    outer loop
      vertex 37.5243 38.9211 1
      vertex 37.5243 38.9211 16
      vertex 37.5243 37.7455 16
    endloop
  endfacet
  facet normal 1 0 0
    outer loop
      vertex 37.5243 37.7455 1
      vertex 37.5243 38.9211 1
      vertex 37.5243 37.7455 16
    endloop
  endfacet
  facet normal 0.309018 0.951056 0
    outer loop
      vertex 38.6424 37.3823 16
      vertex 38.6424 37.3823 1
      vertex 37.5243 37.7455 16
    endloop
  endfacet
  facet normal 0.309018 0.951056 0
    outer loop
      vertex 37.5243 37.7455 16
      vertex 38.6424 37.3823 1
      vertex 37.5243 37.7455 1
    endloop
  endfacet
  facet normal -0.809017 0.587785 0
    outer loop
      vertex 39.3333 38.3333 16
      vertex 39.3333 38.3333 1
      vertex 38.6424 37.3823 16
    endloop
  endfacet
  facet normal -0.809017 0.587785 0
    outer loop
      vertex 38.6424 37.3823 16
      vertex 39.3333 38.3333 1
      vertex 38.6424 37.3823 1
    endloop
  endfacet
  facet normal -0.809017 -0.587785 0
    outer loop
      vertex 39.3333 38.3333 16
      vertex 38.6424 39.2844 16
      vertex 39.3333 38.3333 1
    endloop
  endfacet
  facet normal -0.809017 -0.587785 0
    outer loop
      vertex 39.3333 38.3333 1
      vertex 38.6424 39.2844 16
      vertex 38.6424 39.2844 1
    endloop
  endfacet
  facet normal 0.309018 -0.951056 0
    outer loop
      vertex 38.6424 39.2844 1
      vertex 38.6424 39.2844 16
      vertex 37.5243 38.9211 16
    endloop
  endfacet
  facet normal 0.309018 -0.951056 0
    outer loop
      vertex 37.5243 38.9211 1
      vertex 38.6424 39.2844 1
      vertex 37.5243 38.9211 16
    endloop
  endfacet
  facet normal 0 0 1
    outer loop
      vertex 36.5237 -40 -13
      vertex -36.5656 -36.5656 -13
      vertex -35.8333 -38.3333 -13
    endloop
  endfacet
  facet normal 0 0 1
    outer loop
      vertex 35.8333 -38.3333 -13
      vertex 36.5656 -36.5656 -13
      vertex -38.3333 -35.8333 -13
    endloop
  endfacet
  facet normal 0 0 1
    outer loop
      vertex -38.3333 -35.8333 -13
      vertex -36.5656 -36.5656 -13
      vertex 36.5237 -40 -13
    endloop
  endfacet
  facet normal 0 0 1
    outer loop
      vertex -36.5237 -40 -13
      vertex 36.5237 -40 -13
      vertex -35.8333 -38.3333 -13
    endloop
  endfacet
  facet normal 0 0 1
    outer loop
      vertex 36.5237 -40 -13
      vertex 35.8333 -38.3333 -13
      vertex -38.3333 -35.8333 -13
    endloop
  endfacet
  facet normal 0 0 1
    outer loop
      vertex 36.5656 -36.5656 -13
      vertex 38.3333 -35.8333 -13
      vertex -38.3333 -35.8333 -13
    endloop
  endfacet
  facet normal 0 0 1
    outer loop
      vertex 38.3333 -35.8333 -13
      vertex 40 36.5237 -13
      vertex -38.3333 -35.8333 -13
    endloop
  endfacet
  facet normal 0 0 1
    outer loop
      vertex 38.3333 35.8333 -13
      vertex 36.5656 36.5656 -13
      vertex -38.3333 -35.8333 -13
    endloop
  endfacet
  facet normal 0 0 1
    outer loop
      vertex 40 -36.5237 -13
      vertex 40 36.5237 -13
      vertex 38.3333 -35.8333 -13
    endloop
  endfacet
  facet normal 0 0 1
    outer loop
      vertex 40 36.5237 -13
      vertex 38.3333 35.8333 -13
      vertex -38.3333 -35.8333 -13
    endloop
  endfacet
  facet normal 0 0 1
    outer loop
      vertex 36.5656 36.5656 -13
      vertex 35.8333 38.3333 -13
      vertex -38.3333 -35.8333 -13
    endloop
  endfacet
  facet normal 0 0 1
    outer loop
      vertex 35.8333 38.3333 -13
      vertex 36.5237 40 -13
      vertex -38.3333 -35.8333 -13
    endloop
  endfacet
  facet normal 0 0 1
    outer loop
      vertex -38.3333 35.8333 -13
      vertex -40 36.5237 -13
      vertex -38.3333 -35.8333 -13
    endloop
  endfacet
  facet normal 0 0 1
    outer loop
      vertex 36.5237 40 -13
      vertex -35.8333 38.3333 -13
      vertex -38.3333 -35.8333 -13
    endloop
  endfacet
  facet normal 0 0 1
    outer loop
      vertex 36.5237 40 -13
      vertex -36.5237 40 -13
      vertex -35.8333 38.3333 -13
    endloop
  endfacet
  facet normal 0 0 1
    outer loop
      vertex -35.8333 38.3333 -13
      vertex -36.5656 36.5656 -13
      vertex -38.3333 -35.8333 -13
    endloop
  endfacet
  facet normal 0 0 1
    outer loop
      vertex -40 36.5237 -13
      vertex -40 -36.5237 -13
      vertex -38.3333 -35.8333 -13
    endloop
  endfacet
  facet normal 0 0 1
    outer loop
      vertex -36.5656 36.5656 -13
      vertex -38.3333 35.8333 -13
      vertex -38.3333 -35.8333 -13
    endloop
  endfacet
  facet normal 0 0 1
    outer loop
      vertex -38.0243 -39.2844 1
      vertex -37.3333 -38.3333 1
      vertex -38.0243 -37.3823 1
    endloop
  endfacet
  facet normal 0 0 1
    outer loop
      vertex -39.1424 -38.9211 1
      vertex -38.0243 -39.2844 1
      vertex -39.1424 -37.7455 1
    endloop
  endfacet
  facet normal 0 0 1
    outer loop
      vertex -39.1424 -37.7455 1
      vertex -38.0243 -39.2844 1
      vertex -38.0243 -37.3823 1
    endloop
  endfacet
  facet normal 0 0 1
    outer loop
      vertex -38.0243 37.3823 1
      vertex -37.3333 38.3333 1
      vertex -38.0243 39.2844 1
    endloop
  endfacet
  facet normal 0 0 1
    outer loop
      vertex -39.1424 37.7455 1
      vertex -38.0243 37.3823 1
      vertex -39.1424 38.9211 1
    endloop
  endfacet
  facet normal 0 0 1
    outer loop
      vertex -39.1424 38.9211 1
      vertex -38.0243 37.3823 1
      vertex -38.0243 39.2844 1
    endloop
  endfacet
  facet normal 0 0 1
    outer loop
      vertex 38.6424 -39.2844 1
      vertex 39.3333 -38.3333 1
      vertex 38.6424 -37.3823 1
    endloop
  endfacet
  facet normal 0 0 1
    outer loop
      vertex 37.5243 -38.9211 1
      vertex 38.6424 -39.2844 1
      vertex 37.5243 -37.7455 1
    endloop
  endfacet
  facet normal 0 0 1
    outer loop
      vertex 37.5243 -37.7455 1
      vertex 38.6424 -39.2844 1
      vertex 38.6424 -37.3823 1
    endloop
  endfacet
  facet normal 0 0 1
    outer loop
      vertex 38.6424 37.3823 1
      vertex 39.3333 38.3333 1
      vertex 38.6424 39.2844 1
    endloop
  endfacet
  facet normal 0 0 1
    outer loop
      vertex 37.5243 37.7455 1
      vertex 38.6424 37.3823 1
      vertex 37.5243 38.9211 1
    endloop
  endfacet
  facet normal 0 0 1
    outer loop
      vertex 37.5243 38.9211 1
      vertex 38.6424 37.3823 1
      vertex 38.6424 39.2844 1
    endloop
  endfacet
endsolid OpenSCAD_Model
