solid OpenSCAD_Model
  facet normal -1 0 0
    outer loop
      vertex -42 -27 -12
      vertex -42 -27 12
      vertex -42 27 -12
    endloop
  endfacet
  facet normal -1 0 0
    outer loop
      vertex -42 27 -12
      vertex -42 -27 12
      vertex -42 27 12
    endloop
  endfacet
  facet normal 0 -1 0
    outer loop
      vertex -42 -27 12
      vertex -42 -27 -12
      vertex 42 -27 -12
    endloop
  endfacet
  facet normal 0 -1 0
    outer loop
      vertex 42 -27 12
      vertex -42 -27 12
      vertex 42 -27 -12
    endloop
  endfacet
  facet normal 0 0 -1
    outer loop
      vertex -42 -27 -12
      vertex -42 27 -12
      vertex 42 -27 -12
    endloop
  endfacet
  facet normal 0 0 -1
    outer loop
      vertex 42 -27 -12
      vertex -42 27 -12
      vertex 42 27 -12
    endloop
  endfacet
  facet normal 0 1 0
    outer loop
      vertex -42 27 -12
      vertex -42 27 12
      vertex 42 27 -12
    endloop
  endfacet
  facet normal 0 1 0
    outer loop
      vertex 13.5 27 5
      vertex -42 27 12
      vertex 42 27 12
    endloop
  endfacet
  facet normal 0 1 0
    outer loop
      vertex 13.5 27 -3
      vertex -42 27 12
      vertex 13.5 27 5
    endloop
  endfacet
  facet normal 0 1 0
    outer loop
      vertex 24.5 27 5
      vertex 13.5 27 5
      vertex 42 27 12
    endloop
  endfacet
  facet normal 0 1 0
    outer loop
      vertex 42 27 -12
      vertex -42 27 12
      vertex 13.5 27 -3
    endloop
  endfacet
  facet normal 0 1 0
    outer loop
      vertex 42 27 -12
      vertex 13.5 27 -3
      vertex 24.5 27 -3
    endloop
  endfacet
  facet normal 0 1 0
    outer loop
      vertex 42 27 -12
      vertex 24.5 27 5
      vertex 42 27 12
    endloop
  endfacet
  facet normal 0 1 0
    outer loop
      vertex 24.5 27 5
      vertex 42 27 -12
      vertex 24.5 27 -3
    endloop
  endfacet
  facet normal 0 0 1
    outer loop
      vertex -36.5237 -25 12
      vertex -42 -27 12
      vertex 42 -27 12
    endloop
  endfacet
  facet normal 0 0 1
    outer loop
      vertex -37.3333 -23.3333 12
      vertex -38.0243 -24.2844 12
      vertex -36.5237 -25 12
    endloop
  endfacet
  facet normal 0 0 1
    outer loop
      vertex -42 27 12
      vertex -42 -27 12
      vertex -40 -21.5237 12
    endloop
  endfacet
  facet normal 0 0 1
    outer loop
      vertex -42 27 12
      vertex -40 -21.5237 12
      vertex -40 21.5237 12
    endloop
  endfacet
  facet normal 0 0 1
    outer loop
      vertex 35.8333 -23.3333 12
      vertex 36.5237 -25 12
      vertex 42 -27 12
    endloop
  endfacet
  facet normal 0 0 1
    outer loop
      vertex -42 27 12
      vertex -40 21.5237 12
      vertex -38.3333 20.8333 12
    endloop
  endfacet
  facet normal 0 0 1
    outer loop
      vertex 40 21.5237 12
      vertex 40 -21.5237 12
      vertex 42 -27 12
    endloop
  endfacet
  facet normal 0 0 1
    outer loop
      vertex -39.1424 22.7455 12
      vertex -38.3333 20.8333 12
      vertex -36.5656 21.5656 12
    endloop
  endfacet
  facet normal 0 0 1
    outer loop
      vertex -36.5237 25 12
      vertex -42 27 12
      vertex -35.8333 23.3333 12
    endloop
  endfacet
  facet normal 0 0 1
    outer loop
      vertex 36.5656 21.5656 12
      vertex 38.3333 20.8333 12
      vertex 36.5237 25 12
    endloop
  endfacet
  facet normal 0 0 1
    outer loop
      vertex 42 27 12
      vertex -42 27 12
      vertex -36.5237 25 12
    endloop
  endfacet
  facet normal 0 0 1
    outer loop
      vertex 36.5237 25 12
      vertex 35.8333 23.3333 12
      vertex 36.5656 21.5656 12
    endloop
  endfacet
  facet normal 0 0 1
    outer loop
      vertex 37.5243 -23.9211 12
      vertex 35.8333 -23.3333 12
      vertex 42 -27 12
    endloop
  endfacet
  facet normal 0 0 1
    outer loop
      vertex 37.5243 22.7455 12
      vertex 36.5237 25 12
      vertex 38.3333 20.8333 12
    endloop
  endfacet
  facet normal 0 0 1
    outer loop
      vertex 42 27 12
      vertex 40 21.5237 12
      vertex 42 -27 12
    endloop
  endfacet
  facet normal 0 0 1
    outer loop
      vertex 42 27 12
      vertex 38.3333 20.8333 12
      vertex 40 21.5237 12
    endloop
  endfacet
  facet normal 0 0 1
    outer loop
      vertex 40 -21.5237 12
      vertex 38.3333 -20.8333 12
      vertex 42 -27 12
    endloop
  endfacet
  facet normal 0 0 1
    outer loop
      vertex 39.3333 -23.3333 12
      vertex 38.6424 -24.2844 12
      vertex 42 -27 12
    endloop
  endfacet
  facet normal 0 0 1
    outer loop
      vertex -39.1424 -22.7455 12
      vertex -38.0243 -22.3823 12
      vertex -40 -21.5237 12
    endloop
  endfacet
  facet normal 0 0 1
    outer loop
      vertex -39.1424 23.9211 12
      vertex -38.0243 24.2844 12
      vertex -42 27 12
    endloop
  endfacet
  facet normal 0 0 1
    outer loop
      vertex -39.1424 -23.9211 12
      vertex -42 -27 12
      vertex -36.5237 -25 12
    endloop
  endfacet
  facet normal 0 0 1
    outer loop
      vertex -35.8333 -23.3333 12
      vertex -36.5656 -21.5656 12
      vertex -40 -21.5237 12
    endloop
  endfacet
  facet normal 0 0 1
    outer loop
      vertex -37.3333 -23.3333 12
      vertex -36.5237 -25 12
      vertex -35.8333 -23.3333 12
    endloop
  endfacet
  facet normal 0 0 1
    outer loop
      vertex -38.3333 -20.8333 12
      vertex -40 -21.5237 12
      vertex -36.5656 -21.5656 12
    endloop
  endfacet
  facet normal 0 0 1
    outer loop
      vertex -38.0243 -24.2844 12
      vertex -39.1424 -23.9211 12
      vertex -36.5237 -25 12
    endloop
  endfacet
  facet normal 0 0 1
    outer loop
      vertex -40 -21.5237 12
      vertex -42 -27 12
      vertex -39.1424 -23.9211 12
    endloop
  endfacet
  facet normal 0 0 1
    outer loop
      vertex -40 -21.5237 12
      vertex -39.1424 -23.9211 12
      vertex -39.1424 -22.7455 12
    endloop
  endfacet
  facet normal 0 0 1
    outer loop
      vertex -40 -21.5237 12
      vertex -38.0243 -22.3823 12
      vertex -35.8333 -23.3333 12
    endloop
  endfacet
  facet normal 0 0 1
    outer loop
      vertex -38.0243 -22.3823 12
      vertex -37.3333 -23.3333 12
      vertex -35.8333 -23.3333 12
    endloop
  endfacet
  facet normal 0 0 1
    outer loop
      vertex -37.3333 23.3333 12
      vertex -38.0243 22.3823 12
      vertex -36.5656 21.5656 12
    endloop
  endfacet
  facet normal 0 0 1
    outer loop
      vertex -38.0243 22.3823 12
      vertex -39.1424 22.7455 12
      vertex -36.5656 21.5656 12
    endloop
  endfacet
  facet normal 0 0 1
    outer loop
      vertex -42 27 12
      vertex -38.3333 20.8333 12
      vertex -39.1424 22.7455 12
    endloop
  endfacet
  facet normal 0 0 1
    outer loop
      vertex -42 27 12
      vertex -39.1424 22.7455 12
      vertex -39.1424 23.9211 12
    endloop
  endfacet
  facet normal 0 0 1
    outer loop
      vertex -36.5237 25 12
      vertex 36.5237 25 12
      vertex 42 27 12
    endloop
  endfacet
  facet normal 0 0 1
    outer loop
      vertex 37.5243 -22.7455 12
      vertex 38.6424 -22.3823 12
      vertex 36.5656 -21.5656 12
    endloop
  endfacet
  facet normal 0 0 1
    outer loop
      vertex 38.6424 24.2844 12
      vertex 39.3333 23.3333 12
      vertex 42 27 12
    endloop
  endfacet
  facet normal 0 0 1
    outer loop
      vertex 38.6424 -24.2844 12
      vertex 37.5243 -23.9211 12
      vertex 42 -27 12
    endloop
  endfacet
  facet normal 0 0 1
    outer loop
      vertex 36.5656 -21.5656 12
      vertex 37.5243 -23.9211 12
      vertex 37.5243 -22.7455 12
    endloop
  endfacet
  facet normal 0 0 1
    outer loop
      vertex 38.3333 -20.8333 12
      vertex 38.6424 -22.3823 12
      vertex 42 -27 12
    endloop
  endfacet
  facet normal 0 0 1
    outer loop
      vertex 38.3333 -20.8333 12
      vertex 36.5656 -21.5656 12
      vertex 38.6424 -22.3823 12
    endloop
  endfacet
  facet normal 0 0 1
    outer loop
      vertex 38.6424 -22.3823 12
      vertex 39.3333 -23.3333 12
      vertex 42 -27 12
    endloop
  endfacet
  facet normal 0 0 1
    outer loop
      vertex 38.6424 22.3823 12
      vertex 37.5243 22.7455 12
      vertex 38.3333 20.8333 12
    endloop
  endfacet
  facet normal 0 0 1
    outer loop
      vertex 37.5243 23.9211 12
      vertex 36.5237 25 12
      vertex 37.5243 22.7455 12
    endloop
  endfacet
  facet normal 0 0 1
    outer loop
      vertex 42 27 12
      vertex 36.5237 25 12
      vertex 37.5243 23.9211 12
    endloop
  endfacet
  facet normal 0 0 1
    outer loop
      vertex 42 27 12
      vertex 37.5243 23.9211 12
      vertex 38.6424 24.2844 12
    endloop
  endfacet
  facet normal 0 0 1
    outer loop
      vertex 42 27 12
      vertex 39.3333 23.3333 12
      vertex 38.3333 20.8333 12
    endloop
  endfacet
  facet normal 0 0 1
    outer loop
      vertex 39.3333 23.3333 12
      vertex 38.6424 22.3823 12
      vertex 38.3333 20.8333 12
    endloop
  endfacet
  facet normal 0 0 1
    outer loop
      vertex 36.5237 -25 12
      vertex -36.5237 -25 12
      vertex 42 -27 12
    endloop
  endfacet
  facet normal 0 0 1
    outer loop
      vertex -38.0243 24.2844 12
      vertex -35.8333 23.3333 12
      vertex -42 27 12
    endloop
  endfacet
  facet normal 0 0 1
    outer loop
      vertex -37.3333 23.3333 12
      vertex -35.8333 23.3333 12
      vertex -38.0243 24.2844 12
    endloop
  endfacet
  facet normal 0 0 1
    outer loop
      vertex -36.5656 21.5656 12
      vertex -35.8333 23.3333 12
      vertex -37.3333 23.3333 12
    endloop
  endfacet
  facet normal 0 0 1
    outer loop
      vertex 36.5656 -21.5656 12
      vertex 35.8333 -23.3333 12
      vertex 37.5243 -23.9211 12
    endloop
  endfacet
  facet normal 1 0 0
    outer loop
      vertex 42 -27 12
      vertex 42 -27 -12
      vertex 42 27 -12
    endloop
  endfacet
  facet normal 1 0 0
    outer loop
      vertex 42 27 12
      vertex 42 -27 12
      vertex 42 27 -12
    endloop
  endfacet
  facet normal 1 0 0
    outer loop
      vertex 13.5 27 -3
      vertex 13.5 27 5
      vertex 13.5 25 5
    endloop
  endfacet
  facet normal 1 0 0
    outer loop
      vertex 13.5 25 -3
      vertex 13.5 27 -3
      vertex 13.5 25 5
    endloop
  endfacet
  facet normal 0 0 -1
    outer loop
      vertex 24.5 27 5
      vertex 24.5 25 5
      vertex 13.5 27 5
    endloop
  endfacet
  facet normal 0 0 -1
    outer loop
      vertex 13.5 27 5
      vertex 24.5 25 5
      vertex 13.5 25 5
    endloop
  endfacet
  facet normal -1 0 0
    outer loop
      vertex 24.5 27 5
      vertex 24.5 27 -3
      vertex 24.5 25 5
    endloop
  endfacet
  facet normal -1 0 0
    outer loop
      vertex 24.5 25 5
      vertex 24.5 27 -3
      vertex 24.5 25 -3
    endloop
  endfacet
  facet normal 0 0 1
    outer loop
      vertex 24.5 25 -3
      vertex 24.5 27 -3
      vertex 13.5 27 -3
    endloop
  endfacet
  facet normal 0 0 1
    outer loop
      vertex 13.5 25 -3
      vertex 24.5 25 -3
      vertex 13.5 27 -3
    endloop
  endfacet
  facet normal 1 0 0
    outer loop
      vertex -40 21.5237 -9
      vertex -40 21.5237 12
      vertex -40 -21.5237 12
    endloop
  endfacet
  facet normal 1 0 0
    outer loop
      vertex -40 -21.5237 -9
      vertex -40 21.5237 -9
      vertex -40 -21.5237 12
    endloop
  endfacet
  facet normal -0.382683 0.92388 0
    outer loop
      vertex -40 -21.5237 -9
      vertex -40 -21.5237 12
      vertex -38.3333 -20.8333 -9
    endloop
  endfacet
  facet normal -0.382683 0.92388 0
    outer loop
      vertex -38.3333 -20.8333 -9
      vertex -40 -21.5237 12
      vertex -38.3333 -20.8333 12
    endloop
  endfacet
  facet normal 0.382683 0.92388 0
    outer loop
      vertex -38.3333 -20.8333 -9
      vertex -38.3333 -20.8333 12
      vertex -36.5656 -21.5656 -9
    endloop
  endfacet
  facet normal 0.382683 0.92388 0
    outer loop
      vertex -36.5656 -21.5656 -9
      vertex -38.3333 -20.8333 12
      vertex -36.5656 -21.5656 12
    endloop
  endfacet
  facet normal 0.92388 0.382683 0
    outer loop
      vertex -35.8333 -23.3333 -9
      vertex -36.5656 -21.5656 -9
      vertex -36.5656 -21.5656 12
    endloop
  endfacet
  facet normal 0.92388 0.382683 0
    outer loop
      vertex -35.8333 -23.3333 12
      vertex -35.8333 -23.3333 -9
      vertex -36.5656 -21.5656 12
    endloop
  endfacet
  facet normal 0.92388 -0.382683 0
    outer loop
      vertex -36.5237 -25 12
      vertex -36.5237 -25 -9
      vertex -35.8333 -23.3333 -9
    endloop
  endfacet
  facet normal 0.92388 -0.382683 0
    outer loop
      vertex -35.8333 -23.3333 12
      vertex -36.5237 -25 12
      vertex -35.8333 -23.3333 -9
    endloop
  endfacet
  facet normal 0 1 0
    outer loop
      vertex 36.5237 -25 12
      vertex 36.5237 -25 -9
      vertex -36.5237 -25 12
    endloop
  endfacet
  facet normal 0 1 0
    outer loop
      vertex -36.5237 -25 12
      vertex 36.5237 -25 -9
      vertex -36.5237 -25 -9
    endloop
  endfacet
  facet normal -0.92388 -0.382683 0
    outer loop
      vertex 35.8333 -23.3333 -9
      vertex 36.5237 -25 -9
      vertex 35.8333 -23.3333 12
    endloop
  endfacet
  facet normal -0.92388 -0.382683 0
    outer loop
      vertex 35.8333 -23.3333 12
      vertex 36.5237 -25 -9
      vertex 36.5237 -25 12
    endloop
  endfacet
  facet normal -0.92388 0.382683 0
    outer loop
      vertex 35.8333 -23.3333 -9
      vertex 35.8333 -23.3333 12
      vertex 36.5656 -21.5656 -9
    endloop
  endfacet
  facet normal -0.92388 0.382683 0
    outer loop
      vertex 36.5656 -21.5656 -9
      vertex 35.8333 -23.3333 12
      vertex 36.5656 -21.5656 12
    endloop
  endfacet
  facet normal -0.382683 0.92388 0
    outer loop
      vertex 36.5656 -21.5656 -9
      vertex 36.5656 -21.5656 12
      vertex 38.3333 -20.8333 -9
    endloop
  endfacet
  facet normal -0.382683 0.92388 0
    outer loop
      vertex 38.3333 -20.8333 -9
      vertex 36.5656 -21.5656 12
      vertex 38.3333 -20.8333 12
    endloop
  endfacet
  facet normal 0.382683 0.92388 0
    outer loop
      vertex 38.3333 -20.8333 -9
      vertex 38.3333 -20.8333 12
      vertex 40 -21.5237 -9
    endloop
  endfacet
  facet normal 0.382683 0.92388 0
    outer loop
      vertex 40 -21.5237 -9
      vertex 38.3333 -20.8333 12
      vertex 40 -21.5237 12
    endloop
  endfacet
  facet normal -1 0 0
    outer loop
      vertex 40 21.5237 12
      vertex 40 21.5237 -9
      vertex 40 -21.5237 12
    endloop
  endfacet
  facet normal -1 0 0
    outer loop
      vertex 40 -21.5237 12
      vertex 40 21.5237 -9
      vertex 40 -21.5237 -9
    endloop
  endfacet
  facet normal 0.382683 -0.92388 0
    outer loop
      vertex 38.3333 20.8333 12
      vertex 38.3333 20.8333 -9
      vertex 40 21.5237 -9
    endloop
  endfacet
  facet normal 0.382683 -0.92388 0
    outer loop
      vertex 40 21.5237 12
      vertex 38.3333 20.8333 12
      vertex 40 21.5237 -9
    endloop
  endfacet
  facet normal -0.382683 -0.92388 0
    outer loop
      vertex 36.5656 21.5656 12
      vertex 36.5656 21.5656 -9
      vertex 38.3333 20.8333 -9
    endloop
  endfacet
  facet normal -0.382683 -0.92388 0
    outer loop
      vertex 38.3333 20.8333 12
      vertex 36.5656 21.5656 12
      vertex 38.3333 20.8333 -9
    endloop
  endfacet
  facet normal -0.92388 -0.382683 0
    outer loop
      vertex 35.8333 23.3333 -9
      vertex 36.5656 21.5656 -9
      vertex 35.8333 23.3333 12
    endloop
  endfacet
  facet normal -0.92388 -0.382683 0
    outer loop
      vertex 35.8333 23.3333 12
      vertex 36.5656 21.5656 -9
      vertex 36.5656 21.5656 12
    endloop
  endfacet
  facet normal -0.92388 0.382683 0
    outer loop
      vertex 35.8333 23.3333 -9
      vertex 35.8333 23.3333 12
      vertex 36.5237 25 -9
    endloop
  endfacet
  facet normal -0.92388 0.382683 0
    outer loop
      vertex 36.5237 25 -9
      vertex 35.8333 23.3333 12
      vertex 36.5237 25 12
    endloop
  endfacet
  facet normal 0 -1 0
    outer loop
      vertex 13.5 25 5
      vertex 36.5237 25 12
      vertex -36.5237 25 12
    endloop
  endfacet
  facet normal 0 -1 0
    outer loop
      vertex 24.5 25 5
      vertex 36.5237 25 12
      vertex 13.5 25 5
    endloop
  endfacet
  facet normal 0 -1 0
    outer loop
      vertex 36.5237 25 -9
      vertex 36.5237 25 12
      vertex 24.5 25 5
    endloop
  endfacet
  facet normal 0 -1 0
    outer loop
      vertex 24.5 25 5
      vertex 24.5 25 -3
      vertex 36.5237 25 -9
    endloop
  endfacet
  facet normal 0 -1 0
    outer loop
      vertex -36.5237 25 -9
      vertex 13.5 25 -3
      vertex -36.5237 25 12
    endloop
  endfacet
  facet normal 0 -1 0
    outer loop
      vertex -36.5237 25 -9
      vertex 36.5237 25 -9
      vertex 13.5 25 -3
    endloop
  endfacet
  facet normal 0 -1 0
    outer loop
      vertex 24.5 25 -3
      vertex 13.5 25 -3
      vertex 36.5237 25 -9
    endloop
  endfacet
  facet normal 0 -1 0
    outer loop
      vertex 13.5 25 -3
      vertex 13.5 25 5
      vertex -36.5237 25 12
    endloop
  endfacet
  facet normal 0.92388 0.382683 0
    outer loop
      vertex -35.8333 23.3333 -9
      vertex -36.5237 25 -9
      vertex -36.5237 25 12
    endloop
  endfacet
  facet normal 0.92388 0.382683 0
    outer loop
      vertex -35.8333 23.3333 12
      vertex -35.8333 23.3333 -9
      vertex -36.5237 25 12
    endloop
  endfacet
  facet normal 0.92388 -0.382683 0
    outer loop
      vertex -36.5656 21.5656 12
      vertex -36.5656 21.5656 -9
      vertex -35.8333 23.3333 -9
    endloop
  endfacet
  facet normal 0.92388 -0.382683 0
    outer loop
      vertex -35.8333 23.3333 12
      vertex -36.5656 21.5656 12
      vertex -35.8333 23.3333 -9
    endloop
  endfacet
  facet normal 0.382683 -0.92388 0
    outer loop
      vertex -38.3333 20.8333 12
      vertex -38.3333 20.8333 -9
      vertex -36.5656 21.5656 -9
    endloop
  endfacet
  facet normal 0.382683 -0.92388 0
    outer loop
      vertex -36.5656 21.5656 12
      vertex -38.3333 20.8333 12
      vertex -36.5656 21.5656 -9
    endloop
  endfacet
  facet normal -0.382683 -0.92388 0
    outer loop
      vertex -40 21.5237 12
      vertex -40 21.5237 -9
      vertex -38.3333 20.8333 -9
    endloop
  endfacet
  facet normal -0.382683 -0.92388 0
    outer loop
      vertex -38.3333 20.8333 12
      vertex -40 21.5237 12
      vertex -38.3333 20.8333 -9
    endloop
  endfacet
  facet normal 1 0 0
    outer loop
      vertex -39.1424 -22.7455 3
      vertex -39.1424 -22.7455 12
      vertex -39.1424 -23.9211 12
    endloop
  endfacet
  facet normal 1 0 0
    outer loop
      vertex -39.1424 -23.9211 3
      vertex -39.1424 -22.7455 3
      vertex -39.1424 -23.9211 12
    endloop
  endfacet
  facet normal 0.309018 0.951056 0
    outer loop
      vertex -38.0243 -24.2844 12
      vertex -38.0243 -24.2844 3
      vertex -39.1424 -23.9211 12
    endloop
  endfacet
  facet normal 0.309018 0.951056 0
    outer loop
      vertex -39.1424 -23.9211 12
      vertex -38.0243 -24.2844 3
      vertex -39.1424 -23.9211 3
    endloop
  endfacet
  facet normal -0.809017 0.587785 0
    outer loop
      vertex -37.3333 -23.3333 12
      vertex -37.3333 -23.3333 3
      vertex -38.0243 -24.2844 12
    endloop
  endfacet
  facet normal -0.809017 0.587785 0
    outer loop
      vertex -38.0243 -24.2844 12
      vertex -37.3333 -23.3333 3
      vertex -38.0243 -24.2844 3
    endloop
  endfacet
  facet normal -0.809017 -0.587785 0
    outer loop
      vertex -37.3333 -23.3333 12
      vertex -38.0243 -22.3823 12
      vertex -37.3333 -23.3333 3
    endloop
  endfacet
  facet normal -0.809017 -0.587785 0
    outer loop
      vertex -37.3333 -23.3333 3
      vertex -38.0243 -22.3823 12
      vertex -38.0243 -22.3823 3
    endloop
  endfacet
  facet normal 0.309018 -0.951056 0
    outer loop
      vertex -38.0243 -22.3823 3
      vertex -38.0243 -22.3823 12
      vertex -39.1424 -22.7455 12
    endloop
  endfacet
  facet normal 0.309018 -0.951056 0
    outer loop
      vertex -39.1424 -22.7455 3
      vertex -38.0243 -22.3823 3
      vertex -39.1424 -22.7455 12
    endloop
  endfacet
  facet normal 1 0 0
    outer loop
      vertex -39.1424 23.9211 3
      vertex -39.1424 23.9211 12
      vertex -39.1424 22.7455 12
    endloop
  endfacet
  facet normal 1 0 0
    outer loop
      vertex -39.1424 22.7455 3
      vertex -39.1424 23.9211 3
      vertex -39.1424 22.7455 12
    endloop
  endfacet
  facet normal 0.309018 0.951056 0
    outer loop
      vertex -38.0243 22.3823 12
      vertex -38.0243 22.3823 3
      vertex -39.1424 22.7455 12
    endloop
  endfacet
  facet normal 0.309018 0.951056 0
    outer loop
      vertex -39.1424 22.7455 12
      vertex -38.0243 22.3823 3
      vertex -39.1424 22.7455 3
    endloop
  endfacet
  facet normal -0.809017 0.587785 0
    outer loop
      vertex -37.3333 23.3333 12
      vertex -37.3333 23.3333 3
      vertex -38.0243 22.3823 12
    endloop
  endfacet
  facet normal -0.809017 0.587785 0
    outer loop
      vertex -38.0243 22.3823 12
      vertex -37.3333 23.3333 3
      vertex -38.0243 22.3823 3
    endloop
  endfacet
  facet normal -0.809017 -0.587785 0
    outer loop
      vertex -37.3333 23.3333 12
      vertex -38.0243 24.2844 12
      vertex -37.3333 23.3333 3
    endloop
  endfacet
  facet normal -0.809017 -0.587785 0
    outer loop
      vertex -37.3333 23.3333 3
      vertex -38.0243 24.2844 12
      vertex -38.0243 24.2844 3
    endloop
  endfacet
  facet normal 0.309018 -0.951056 0
    outer loop
      vertex -38.0243 24.2844 3
      vertex -38.0243 24.2844 12
      vertex -39.1424 23.9211 12
    endloop
  endfacet
  facet normal 0.309018 -0.951056 0
    outer loop
      vertex -39.1424 23.9211 3
      vertex -38.0243 24.2844 3
      vertex -39.1424 23.9211 12
    endloop
  endfacet
  facet normal 1 0 0
    outer loop
      vertex 37.5243 -22.7455 3
      vertex 37.5243 -22.7455 12
      vertex 37.5243 -23.9211 12
    endloop
  endfacet
  facet normal 1 0 0
    outer loop
      vertex 37.5243 -23.9211 3
      vertex 37.5243 -22.7455 3
      vertex 37.5243 -23.9211 12
    endloop
  endfacet
  facet normal 0.309018 0.951056 0
    outer loop
      vertex 38.6424 -24.2844 12
      vertex 38.6424 -24.2844 3
      vertex 37.5243 -23.9211 12
    endloop
  endfacet
  facet normal 0.309018 0.951056 0
    outer loop
      vertex 37.5243 -23.9211 12
      vertex 38.6424 -24.2844 3
      vertex 37.5243 -23.9211 3
    endloop
  endfacet
  facet normal -0.809017 0.587785 0
    outer loop
      vertex 39.3333 -23.3333 12
      vertex 39.3333 -23.3333 3
      vertex 38.6424 -24.2844 12
    endloop
  endfacet
  facet normal -0.809017 0.587785 0
    outer loop
      vertex 38.6424 -24.2844 12
      vertex 39.3333 -23.3333 3
      vertex 38.6424 -24.2844 3
    endloop
  endfacet
  facet normal -0.809017 -0.587785 0
    outer loop
      vertex 39.3333 -23.3333 12
      vertex 38.6424 -22.3823 12
      vertex 39.3333 -23.3333 3
    endloop
  endfacet
  facet normal -0.809017 -0.587785 0
    outer loop
      vertex 39.3333 -23.3333 3
      vertex 38.6424 -22.3823 12
      vertex 38.6424 -22.3823 3
    endloop
  endfacet
  facet normal 0.309018 -0.951056 0
    outer loop
      vertex 38.6424 -22.3823 3
      vertex 38.6424 -22.3823 12
      vertex 37.5243 -22.7455 12
    endloop
  endfacet
  facet normal 0.309018 -0.951056 0
    outer loop
      vertex 37.5243 -22.7455 3
      vertex 38.6424 -22.3823 3
      vertex 37.5243 -22.7455 12
    endloop
  endfacet
  facet normal 1 0 0
    outer loop
      vertex 37.5243 23.9211 3
      vertex 37.5243 23.9211 12
      vertex 37.5243 22.7455 12
    endloop
  endfacet
  facet normal 1 0 0
    outer loop
      vertex 37.5243 22.7455 3
      vertex 37.5243 23.9211 3
      vertex 37.5243 22.7455 12
    endloop
  endfacet
  facet normal 0.309018 0.951056 0
    outer loop
      vertex 38.6424 22.3823 12
      vertex 38.6424 22.3823 3
      vertex 37.5243 22.7455 12
    endloop
  endfacet
  facet normal 0.309018 0.951056 0
    outer loop
      vertex 37.5243 22.7455 12
      vertex 38.6424 22.3823 3
      vertex 37.5243 22.7455 3
    endloop
  endfacet
  facet normal -0.809017 0.587785 0
    outer loop
      vertex 39.3333 23.3333 12
      vertex 39.3333 23.3333 3
      vertex 38.6424 22.3823 12
    endloop
  endfacet
  facet normal -0.809017 0.587785 0
    outer loop
      vertex 38.6424 22.3823 12
      vertex 39.3333 23.3333 3
      vertex 38.6424 22.3823 3
    endloop
  endfacet
  facet normal -0.809017 -0.587785 0
    outer loop
      vertex 39.3333 23.3333 12
      vertex 38.6424 24.2844 12
      vertex 39.3333 23.3333 3
    endloop
  endfacet
  facet normal -0.809017 -0.587785 0
    outer loop
      vertex 39.3333 23.3333 3
      vertex 38.6424 24.2844 12
      vertex 38.6424 24.2844 3
    endloop
  endfacet
  facet normal 0.309018 -0.951056 0
    outer loop
      vertex 38.6424 24.2844 3
      vertex 38.6424 24.2844 12
      vertex 37.5243 23.9211 12
    endloop
  endfacet
  facet normal 0.309018 -0.951056 0
    outer loop
      vertex 37.5243 23.9211 3
      vertex 38.6424 24.2844 3
      vertex 37.5243 23.9211 12
    endloop
  endfacet
  facet normal 0 0 1
    outer loop
      vertex 36.5237 -25 -9
      vertex -36.5656 -21.5656 -9
      vertex -35.8333 -23.3333 -9
    endloop
  endfacet
  facet normal 0 0 1
    outer loop
      vertex 35.8333 -23.3333 -9
      vertex 36.5656 -21.5656 -9
      vertex -38.3333 -20.8333 -9
    endloop
  endfacet
  facet normal 0 0 1
    outer loop
      vertex -38.3333 -20.8333 -9
      vertex -36.5656 -21.5656 -9
      vertex 36.5237 -25 -9
    endloop
  endfacet
  facet normal 0 0 1
    outer loop
      vertex -36.5237 -25 -9
      vertex 36.5237 -25 -9
      vertex -35.8333 -23.3333 -9
    endloop
  endfacet
  facet normal 0 0 1
    outer loop
      vertex 36.5237 -25 -9
      vertex 35.8333 -23.3333 -9
      vertex -38.3333 -20.8333 -9
    endloop
  endfacet
  facet normal 0 0 1
    outer loop
      vertex 36.5656 -21.5656 -9
      vertex 38.3333 -20.8333 -9
      vertex -38.3333 -20.8333 -9
    endloop
  endfacet
  facet normal 0 0 1
    outer loop
      vertex 38.3333 -20.8333 -9
      vertex 40 21.5237 -9
      vertex -38.3333 -20.8333 -9
    endloop
  endfacet
  facet normal 0 0 1
    outer loop
      vertex 38.3333 20.8333 -9
      vertex 36.5656 21.5656 -9
      vertex -38.3333 -20.8333 -9
    endloop
  endfacet
  facet normal 0 0 1
    outer loop
      vertex 40 -21.5237 -9
      vertex 40 21.5237 -9
      vertex 38.3333 -20.8333 -9
    endloop
  endfacet
  facet normal 0 0 1
    outer loop
      vertex 40 21.5237 -9
      vertex 38.3333 20.8333 -9
      vertex -38.3333 -20.8333 -9
    endloop
  endfacet
  facet normal 0 0 1
    outer loop
      vertex 36.5656 21.5656 -9
      vertex 35.8333 23.3333 -9
      vertex -38.3333 -20.8333 -9
    endloop
  endfacet
  facet normal 0 0 1
    outer loop
      vertex 35.8333 23.3333 -9
      vertex 36.5237 25 -9
      vertex -38.3333 -20.8333 -9
    endloop
  endfacet
  facet normal 0 0 1
    outer loop
      vertex -38.3333 20.8333 -9
      vertex -40 21.5237 -9
      vertex -38.3333 -20.8333 -9
    endloop
  endfacet
  facet normal 0 0 1
    outer loop
      vertex 36.5237 25 -9
      vertex -35.8333 23.3333 -9
      vertex -38.3333 -20.8333 -9
    endloop
  endfacet
  facet normal 0 0 1
    outer loop
      vertex 36.5237 25 -9
      vertex -36.5237 25 -9
      vertex -35.8333 23.3333 -9
    endloop
  endfacet
  facet normal 0 0 1
    outer loop
      vertex -35.8333 23.3333 -9
      vertex -36.5656 21.5656 -9
      vertex -38.3333 -20.8333 -9
    endloop
  endfacet
  facet normal 0 0 1
    outer loop
      vertex -40 21.5237 -9
      vertex -40 -21.5237 -9
      vertex -38.3333 -20.8333 -9
    endloop
  endfacet
  facet normal 0 0 1
    outer loop
      vertex -36.5656 21.5656 -9
      vertex -38.3333 20.8333 -9
      vertex -38.3333 -20.8333 -9
    endloop
  endfacet
  facet normal 0 0 1
    outer loop
      vertex -38.0243 -24.2844 3
      vertex -37.3333 -23.3333 3
      vertex -38.0243 -22.3823 3
    endloop
  endfacet
  facet normal 0 0 1
    outer loop
      vertex -39.1424 -23.9211 3
      vertex -38.0243 -24.2844 3
      vertex -39.1424 -22.7455 3
    endloop
  endfacet
  facet normal 0 0 1
    outer loop
      vertex -39.1424 -22.7455 3
      vertex -38.0243 -24.2844 3
      vertex -38.0243 -22.3823 3
    endloop
  endfacet
  facet normal 0 0 1
    outer loop
      vertex -38.0243 22.3823 3
      vertex -37.3333 23.3333 3
      vertex -38.0243 24.2844 3
    endloop
  endfacet
  facet normal 0 0 1
    outer loop
      vertex -39.1424 22.7455 3
      vertex -38.0243 22.3823 3
      vertex -39.1424 23.9211 3
    endloop
  endfacet
  facet normal 0 0 1
    outer loop
      vertex -39.1424 23.9211 3
      vertex -38.0243 22.3823 3
      vertex -38.0243 24.2844 3
    endloop
  endfacet
  facet normal 0 0 1
    outer loop
      vertex 38.6424 -24.2844 3
      vertex 39.3333 -23.3333 3
      vertex 38.6424 -22.3823 3
    endloop
  endfacet
  facet normal 0 0 1
    outer loop
      vertex 37.5243 -23.9211 3
      vertex 38.6424 -24.2844 3
      vertex 37.5243 -22.7455 3
    endloop
  endfacet
  facet normal 0 0 1
    outer loop
      vertex 37.5243 -22.7455 3
      vertex 38.6424 -24.2844 3
      vertex 38.6424 -22.3823 3
    endloop
  endfacet
  facet normal 0 0 1
    outer loop
      vertex 38.6424 22.3823 3
      vertex 39.3333 23.3333 3
      vertex 38.6424 24.2844 3
    endloop
  endfacet
  facet normal 0 0 1
    outer loop
      vertex 37.5243 22.7455 3
      vertex 38.6424 22.3823 3
      vertex 37.5243 23.9211 3
    endloop
  endfacet
  facet normal 0 0 1
    outer loop
      vertex 37.5243 23.9211 3
      vertex 38.6424 22.3823 3
      vertex 38.6424 24.2844 3
    endloop
  endfacet
endsolid OpenSCAD_Model
